<svg width="101" height="104" viewBox="0 0 101 104" fill="none" xmlns="http://www.w3.org/2000/svg">
<g filter="url(#filter0_d_612_505)">
<mask id="path-1-outside-1_612_505" maskUnits="userSpaceOnUse" x="4" y="0" width="93" height="96" fill="black">
<rect fill="white" x="4" width="93" height="96"/>
<path fill-rule="evenodd" clip-rule="evenodd" d="M34.5303 1.07686L18.6781 1.12776L17.9803 1.46616C17.3325 1.78036 16.8681 2.21826 11.5125 7.56616C6.13932 12.9316 5.72102 13.3741 5.42922 14.0004C5.05952 14.7937 4.92492 15.616 5.03992 16.3778C5.26252 17.8524 5.17932 17.7533 11.5178 24.0975C16.8924 29.4768 17.3281 29.8884 17.9582 30.1822C18.3457 30.363 18.9215 30.5345 19.3082 30.5843C19.679 30.6321 26.7211 30.6727 34.9574 30.6745L49.9324 30.6778V37.2778V43.8778L34.8074 43.8784C25.6947 43.8787 19.451 43.9169 19.1003 43.9743C17.7536 44.1949 17.8946 44.0743 11.5205 50.4575C5.12572 56.8615 5.23172 56.7367 5.04662 58.0778C4.93172 58.9099 5.04472 59.7179 5.37832 60.4488C5.61002 60.9565 6.34702 61.7342 11.3625 66.7637C14.5084 69.9185 17.3095 72.6478 17.5871 72.8289C18.6488 73.5212 17.5137 73.4778 34.5506 73.4778H49.9324V84.0578C49.9324 92.1534 49.9606 94.666 50.0524 94.7578C50.1184 94.8238 50.2894 94.8778 50.4324 94.8778C50.5754 94.8778 50.7464 94.8238 50.8124 94.7578C50.905 94.6652 50.9324 89.7756 50.9324 73.3578V52.0778L66.0574 52.0772C75.1701 52.0769 81.4138 52.0387 81.7645 51.9813C83.1112 51.7607 82.9702 51.8813 89.3443 45.4981C95.7195 39.1138 95.6371 39.2104 95.8135 37.9099C95.9269 37.0741 95.8112 36.2182 95.4895 35.5133C95.2539 34.9972 94.5446 34.2483 89.5023 29.1919C86.3564 26.0371 83.5553 23.3078 83.2777 23.1267C82.216 22.4344 83.3511 22.4778 66.3142 22.4778H50.9324V11.8835V1.28906L50.7101 1.13346C50.5879 1.04786 50.4642 0.988565 50.4351 1.00186C50.4061 1.01506 43.2489 1.04886 34.5303 1.07686ZM18.6324 2.29536C18.1278 2.48536 17.6105 2.97316 12.3658 8.20396C8.25072 12.3081 6.57182 14.0476 6.37302 14.4128C6.16082 14.8026 6.08672 15.0958 6.05302 15.6783C5.97102 17.0945 5.71012 16.7714 12.1639 23.2454C16.2029 27.2971 18.012 29.0453 18.373 29.2454L18.8824 29.5278L34.4074 29.554L49.9324 29.5803V15.829V2.07776L34.5574 2.08296C19.2559 2.08816 19.1798 2.08916 18.6324 2.29536ZM50.9324 37.2778V51.0778L65.9074 51.077C75.7353 51.0765 81.1014 51.0408 81.5195 50.9729C81.8699 50.9161 82.3199 50.7847 82.5195 50.681C82.7191 50.5773 85.4983 47.8679 88.6956 44.6601C94.1782 39.1595 94.5187 38.7972 94.6829 38.2899C94.9154 37.5718 94.8505 36.4992 94.537 35.8778C94.2611 35.331 83.5549 24.547 82.7824 24.0378C82.5074 23.8566 82.0712 23.6564 81.8131 23.593C81.4694 23.5086 77.2768 23.4778 66.1381 23.4778H50.9324V37.2778ZM19.2541 44.9891C18.9635 45.0375 18.5585 45.164 18.3541 45.2701C18.1478 45.3772 15.3957 48.0583 12.1692 51.2955C6.68662 56.7961 6.34612 57.1584 6.18192 57.6657C5.94942 58.3838 6.01432 59.4564 6.32782 60.0778C6.60372 60.6246 17.3099 71.4086 18.0824 71.9178C18.3574 72.099 18.7936 72.2992 19.0517 72.3626C19.3954 72.447 23.588 72.4778 34.7267 72.4778H49.9324V58.6778V44.8778L34.8574 44.8895C26.5661 44.8959 19.5447 44.9408 19.2541 44.9891Z"/>
</mask>
<path fill-rule="evenodd" clip-rule="evenodd" d="M34.5303 1.07686L18.6781 1.12776L17.9803 1.46616C17.3325 1.78036 16.8681 2.21826 11.5125 7.56616C6.13932 12.9316 5.72102 13.3741 5.42922 14.0004C5.05952 14.7937 4.92492 15.616 5.03992 16.3778C5.26252 17.8524 5.17932 17.7533 11.5178 24.0975C16.8924 29.4768 17.3281 29.8884 17.9582 30.1822C18.3457 30.363 18.9215 30.5345 19.3082 30.5843C19.679 30.6321 26.7211 30.6727 34.9574 30.6745L49.9324 30.6778V37.2778V43.8778L34.8074 43.8784C25.6947 43.8787 19.451 43.9169 19.1003 43.9743C17.7536 44.1949 17.8946 44.0743 11.5205 50.4575C5.12572 56.8615 5.23172 56.7367 5.04662 58.0778C4.93172 58.9099 5.04472 59.7179 5.37832 60.4488C5.61002 60.9565 6.34702 61.7342 11.3625 66.7637C14.5084 69.9185 17.3095 72.6478 17.5871 72.8289C18.6488 73.5212 17.5137 73.4778 34.5506 73.4778H49.9324V84.0578C49.9324 92.1534 49.9606 94.666 50.0524 94.7578C50.1184 94.8238 50.2894 94.8778 50.4324 94.8778C50.5754 94.8778 50.7464 94.8238 50.8124 94.7578C50.905 94.6652 50.9324 89.7756 50.9324 73.3578V52.0778L66.0574 52.0772C75.1701 52.0769 81.4138 52.0387 81.7645 51.9813C83.1112 51.7607 82.9702 51.8813 89.3443 45.4981C95.7195 39.1138 95.6371 39.2104 95.8135 37.9099C95.9269 37.0741 95.8112 36.2182 95.4895 35.5133C95.2539 34.9972 94.5446 34.2483 89.5023 29.1919C86.3564 26.0371 83.5553 23.3078 83.2777 23.1267C82.216 22.4344 83.3511 22.4778 66.3142 22.4778H50.9324V11.8835V1.28906L50.7101 1.13346C50.5879 1.04786 50.4642 0.988565 50.4351 1.00186C50.4061 1.01506 43.2489 1.04886 34.5303 1.07686ZM18.6324 2.29536C18.1278 2.48536 17.6105 2.97316 12.3658 8.20396C8.25072 12.3081 6.57182 14.0476 6.37302 14.4128C6.16082 14.8026 6.08672 15.0958 6.05302 15.6783C5.97102 17.0945 5.71012 16.7714 12.1639 23.2454C16.2029 27.2971 18.012 29.0453 18.373 29.2454L18.8824 29.5278L34.4074 29.554L49.9324 29.5803V15.829V2.07776L34.5574 2.08296C19.2559 2.08816 19.1798 2.08916 18.6324 2.29536ZM50.9324 37.2778V51.0778L65.9074 51.077C75.7353 51.0765 81.1014 51.0408 81.5195 50.9729C81.8699 50.9161 82.3199 50.7847 82.5195 50.681C82.7191 50.5773 85.4983 47.8679 88.6956 44.6601C94.1782 39.1595 94.5187 38.7972 94.6829 38.2899C94.9154 37.5718 94.8505 36.4992 94.537 35.8778C94.2611 35.331 83.5549 24.547 82.7824 24.0378C82.5074 23.8566 82.0712 23.6564 81.8131 23.593C81.4694 23.5086 77.2768 23.4778 66.1381 23.4778H50.9324V37.2778ZM19.2541 44.9891C18.9635 45.0375 18.5585 45.164 18.3541 45.2701C18.1478 45.3772 15.3957 48.0583 12.1692 51.2955C6.68662 56.7961 6.34612 57.1584 6.18192 57.6657C5.94942 58.3838 6.01432 59.4564 6.32782 60.0778C6.60372 60.6246 17.3099 71.4086 18.0824 71.9178C18.3574 72.099 18.7936 72.2992 19.0517 72.3626C19.3954 72.447 23.588 72.4778 34.7267 72.4778H49.9324V58.6778V44.8778L34.8574 44.8895C26.5661 44.8959 19.5447 44.9408 19.2541 44.9891Z" fill="black"/>
<path fill-rule="evenodd" clip-rule="evenodd" d="M34.5303 1.07686L18.6781 1.12776L17.9803 1.46616C17.3325 1.78036 16.8681 2.21826 11.5125 7.56616C6.13932 12.9316 5.72102 13.3741 5.42922 14.0004C5.05952 14.7937 4.92492 15.616 5.03992 16.3778C5.26252 17.8524 5.17932 17.7533 11.5178 24.0975C16.8924 29.4768 17.3281 29.8884 17.9582 30.1822C18.3457 30.363 18.9215 30.5345 19.3082 30.5843C19.679 30.6321 26.7211 30.6727 34.9574 30.6745L49.9324 30.6778V37.2778V43.8778L34.8074 43.8784C25.6947 43.8787 19.451 43.9169 19.1003 43.9743C17.7536 44.1949 17.8946 44.0743 11.5205 50.4575C5.12572 56.8615 5.23172 56.7367 5.04662 58.0778C4.93172 58.9099 5.04472 59.7179 5.37832 60.4488C5.61002 60.9565 6.34702 61.7342 11.3625 66.7637C14.5084 69.9185 17.3095 72.6478 17.5871 72.8289C18.6488 73.5212 17.5137 73.4778 34.5506 73.4778H49.9324V84.0578C49.9324 92.1534 49.9606 94.666 50.0524 94.7578C50.1184 94.8238 50.2894 94.8778 50.4324 94.8778C50.5754 94.8778 50.7464 94.8238 50.8124 94.7578C50.905 94.6652 50.9324 89.7756 50.9324 73.3578V52.0778L66.0574 52.0772C75.1701 52.0769 81.4138 52.0387 81.7645 51.9813C83.1112 51.7607 82.9702 51.8813 89.3443 45.4981C95.7195 39.1138 95.6371 39.2104 95.8135 37.9099C95.9269 37.0741 95.8112 36.2182 95.4895 35.5133C95.2539 34.9972 94.5446 34.2483 89.5023 29.1919C86.3564 26.0371 83.5553 23.3078 83.2777 23.1267C82.216 22.4344 83.3511 22.4778 66.3142 22.4778H50.9324V11.8835V1.28906L50.7101 1.13346C50.5879 1.04786 50.4642 0.988565 50.4351 1.00186C50.4061 1.01506 43.2489 1.04886 34.5303 1.07686ZM18.6324 2.29536C18.1278 2.48536 17.6105 2.97316 12.3658 8.20396C8.25072 12.3081 6.57182 14.0476 6.37302 14.4128C6.16082 14.8026 6.08672 15.0958 6.05302 15.6783C5.97102 17.0945 5.71012 16.7714 12.1639 23.2454C16.2029 27.2971 18.012 29.0453 18.373 29.2454L18.8824 29.5278L34.4074 29.554L49.9324 29.5803V15.829V2.07776L34.5574 2.08296C19.2559 2.08816 19.1798 2.08916 18.6324 2.29536ZM50.9324 37.2778V51.0778L65.9074 51.077C75.7353 51.0765 81.1014 51.0408 81.5195 50.9729C81.8699 50.9161 82.3199 50.7847 82.5195 50.681C82.7191 50.5773 85.4983 47.8679 88.6956 44.6601C94.1782 39.1595 94.5187 38.7972 94.6829 38.2899C94.9154 37.5718 94.8505 36.4992 94.537 35.8778C94.2611 35.331 83.5549 24.547 82.7824 24.0378C82.5074 23.8566 82.0712 23.6564 81.8131 23.593C81.4694 23.5086 77.2768 23.4778 66.1381 23.4778H50.9324V37.2778ZM19.2541 44.9891C18.9635 45.0375 18.5585 45.164 18.3541 45.2701C18.1478 45.3772 15.3957 48.0583 12.1692 51.2955C6.68662 56.7961 6.34612 57.1584 6.18192 57.6657C5.94942 58.3838 6.01432 59.4564 6.32782 60.0778C6.60372 60.6246 17.3099 71.4086 18.0824 71.9178C18.3574 72.099 18.7936 72.2992 19.0517 72.3626C19.3954 72.447 23.588 72.4778 34.7267 72.4778H49.9324V58.6778V44.8778L34.8574 44.8895C26.5661 44.8959 19.5447 44.9408 19.2541 44.9891Z" stroke="black" stroke-width="2" mask="url(#path-1-outside-1_612_505)"/>
</g>
<defs>
<filter id="filter0_d_612_505" x="0" y="-6.10352e-05" width="100.856" height="103.878" filterUnits="userSpaceOnUse" color-interpolation-filters="sRGB">
<feFlood flood-opacity="0" result="BackgroundImageFix"/>
<feColorMatrix in="SourceAlpha" type="matrix" values="0 0 0 0 0 0 0 0 0 0 0 0 0 0 0 0 0 0 127 0" result="hardAlpha"/>
<feOffset dy="4"/>
<feGaussianBlur stdDeviation="2"/>
<feComposite in2="hardAlpha" operator="out"/>
<feColorMatrix type="matrix" values="0 0 0 0 0 0 0 0 0 0 0 0 0 0 0 0 0 0 0.25 0"/>
<feBlend mode="normal" in2="BackgroundImageFix" result="effect1_dropShadow_612_505"/>
<feBlend mode="normal" in="SourceGraphic" in2="effect1_dropShadow_612_505" result="shape"/>
</filter>
</defs>
</svg>
