<svg width="91" height="102" viewBox="0 0 91 102" fill="none" xmlns="http://www.w3.org/2000/svg">
<mask id="path-1-outside-1_607_31" maskUnits="userSpaceOnUse" x="0" y="0" width="91" height="102" fill="black">
<rect fill="white" width="91" height="102"/>
<path fill-rule="evenodd" clip-rule="evenodd" d="M23.3991 1.15083C23.1897 1.31333 23.1876 1.35974 23.1876 5.77641V10.2378L21.9126 10.3746C19.0156 10.6854 16.7427 11.4009 14.2538 12.7854C9.99847 15.1526 6.62177 18.9742 4.48337 23.8432C3.12507 26.9357 2.65567 28.9455 2.19197 33.6536C0.818369 47.6003 0.652169 57.6288 1.58897 70.0324C1.86227 73.6515 2.25427 77.9728 2.44297 79.4475C3.16467 85.0888 5.42027 90.041 8.99717 93.8375C12.7414 97.8115 17.2736 100.035 22.4376 100.431C32.3174 101.19 57.8578 101.19 67.7376 100.431C72.8023 100.043 77.2021 97.9282 80.9264 94.093C84.6366 90.2724 86.9893 85.2256 87.7282 79.5029C87.9391 77.869 88.4465 72.1228 88.6818 68.7032C89.0888 62.7872 89.1361 61.4033 89.1361 55.4114C89.1361 51.776 89.0858 48.5612 89.008 47.2147C88.6588 41.1759 88.0579 33.8173 87.6847 31.0085C87.3232 28.2887 86.7925 26.3652 85.7382 23.9539C83.2712 18.3117 79.3227 14.2057 74.1366 11.8893C72.3796 11.1047 70.4649 10.6109 68.2626 10.3746L66.9876 10.2378V5.77641C66.9876 1.35974 66.9855 1.31333 66.7761 1.15083C66.6598 1.06056 66.4911 1.01493 66.4011 1.04926C65.9953 1.20445 65.9876 1.29328 65.9877 5.83722V10.219L64.3127 10.1438C60.2464 9.96124 55.5627 9.82832 50.7626 9.7592L45.5876 9.68455V5.49606V1.30746L45.3376 1.12602C45.106 0.957992 45.0692 0.957992 44.8376 1.12602L44.5876 1.30746V5.49606V9.68455L39.4126 9.75931C34.5713 9.8291 29.7787 9.96478 25.8625 10.1429L24.1875 10.219V5.83722C24.1876 1.29328 24.1799 1.20445 23.7741 1.04926C23.6841 1.01493 23.5154 1.06056 23.3991 1.15083ZM35.9876 10.9454C31.7683 11.0333 26.1812 11.2323 24.9626 11.3378L24.1876 11.4051V16.6377C24.1876 21.5664 24.177 21.8811 24.0047 22.0537C23.7899 22.2691 23.4769 22.2917 23.3076 22.1041C23.2176 22.0044 23.1876 20.6469 23.1876 16.6766C23.1876 13.7646 23.1699 11.382 23.1482 11.382C22.8362 11.382 20.8322 11.6499 20.1876 11.7777C13.8262 13.0391 8.34437 17.6855 5.44427 24.2743C3.84107 27.9163 3.50587 29.7671 2.74417 39.1842C1.75507 51.4134 1.75527 59.2039 2.74517 71.5831C3.33467 78.9559 3.65987 81.2954 4.45097 83.8545C6.24157 89.6474 10.0098 94.3946 14.9376 97.0656C17.0615 98.2168 19.3686 98.9582 21.6376 99.2185C24.5965 99.5581 36.0599 99.8827 45.0876 99.8827C54.1153 99.8827 65.5787 99.5581 68.5376 99.2185C72.5023 98.7636 76.5576 96.8161 79.5454 93.9325C83.731 89.8927 86.0588 84.9561 86.7825 78.5846C87.207 74.8478 87.7245 68.248 88.0047 62.9988C88.1674 59.9523 88.1684 50.7911 88.0065 47.8239C87.6893 42.0117 86.9864 33.3595 86.6318 30.9026C86.2884 28.5225 85.7165 26.5232 84.7391 24.2862C81.8705 17.7199 76.3508 13.0394 69.9876 11.7777C69.343 11.6499 67.339 11.382 67.027 11.382C67.0053 11.382 66.9876 13.7646 66.9876 16.6766C66.9876 20.6469 66.9576 22.0044 66.8676 22.1041C66.6909 22.2999 66.3422 22.2659 66.1531 22.0345C66.004 21.852 65.9876 21.3142 65.9876 16.6169V11.402L65.1626 11.3351C63.1127 11.1689 51.2726 10.8382 47.1126 10.8309L45.5876 10.8282V16.3586C45.5876 21.2385 45.5691 21.9094 45.4305 22.063C45.2298 22.2854 44.9454 22.2854 44.7447 22.063C44.6061 21.9094 44.5876 21.2385 44.5876 16.3586V10.8282L42.2126 10.8467C40.9064 10.8569 38.1051 10.9013 35.9876 10.9454ZM22.8099 46.6672C22.6858 46.7634 22.5876 46.9563 22.5876 47.1039C22.5876 47.2516 22.6858 47.4444 22.8099 47.5407C23.0094 47.6955 25.2809 47.7129 45.0349 47.7115C62.5142 47.7103 67.089 47.6812 67.2876 47.5705C67.6298 47.3796 67.6738 46.9064 67.3711 46.6716C67.164 46.5109 65.1243 46.4947 45.0876 46.4947C25.2875 46.4947 23.0094 46.5123 22.8099 46.6672ZM22.8099 70.1495C22.6858 70.2457 22.5876 70.4386 22.5876 70.5862C22.5876 71.2239 22.0705 71.1954 33.6376 71.1954C45.2047 71.1954 44.6876 71.2239 44.6876 70.5862C44.6876 69.9486 45.2047 69.977 33.6376 69.977C24.2006 69.977 23.0076 69.9961 22.8099 70.1495Z"/>
</mask>
<path fill-rule="evenodd" clip-rule="evenodd" d="M23.3991 1.15083C23.1897 1.31333 23.1876 1.35974 23.1876 5.77641V10.2378L21.9126 10.3746C19.0156 10.6854 16.7427 11.4009 14.2538 12.7854C9.99847 15.1526 6.62177 18.9742 4.48337 23.8432C3.12507 26.9357 2.65567 28.9455 2.19197 33.6536C0.818369 47.6003 0.652169 57.6288 1.58897 70.0324C1.86227 73.6515 2.25427 77.9728 2.44297 79.4475C3.16467 85.0888 5.42027 90.041 8.99717 93.8375C12.7414 97.8115 17.2736 100.035 22.4376 100.431C32.3174 101.19 57.8578 101.19 67.7376 100.431C72.8023 100.043 77.2021 97.9282 80.9264 94.093C84.6366 90.2724 86.9893 85.2256 87.7282 79.5029C87.9391 77.869 88.4465 72.1228 88.6818 68.7032C89.0888 62.7872 89.1361 61.4033 89.1361 55.4114C89.1361 51.776 89.0858 48.5612 89.008 47.2147C88.6588 41.1759 88.0579 33.8173 87.6847 31.0085C87.3232 28.2887 86.7925 26.3652 85.7382 23.9539C83.2712 18.3117 79.3227 14.2057 74.1366 11.8893C72.3796 11.1047 70.4649 10.6109 68.2626 10.3746L66.9876 10.2378V5.77641C66.9876 1.35974 66.9855 1.31333 66.7761 1.15083C66.6598 1.06056 66.4911 1.01493 66.4011 1.04926C65.9953 1.20445 65.9876 1.29328 65.9877 5.83722V10.219L64.3127 10.1438C60.2464 9.96124 55.5627 9.82832 50.7626 9.7592L45.5876 9.68455V5.49606V1.30746L45.3376 1.12602C45.106 0.957992 45.0692 0.957992 44.8376 1.12602L44.5876 1.30746V5.49606V9.68455L39.4126 9.75931C34.5713 9.8291 29.7787 9.96478 25.8625 10.1429L24.1875 10.219V5.83722C24.1876 1.29328 24.1799 1.20445 23.7741 1.04926C23.6841 1.01493 23.5154 1.06056 23.3991 1.15083ZM35.9876 10.9454C31.7683 11.0333 26.1812 11.2323 24.9626 11.3378L24.1876 11.4051V16.6377C24.1876 21.5664 24.177 21.8811 24.0047 22.0537C23.7899 22.2691 23.4769 22.2917 23.3076 22.1041C23.2176 22.0044 23.1876 20.6469 23.1876 16.6766C23.1876 13.7646 23.1699 11.382 23.1482 11.382C22.8362 11.382 20.8322 11.6499 20.1876 11.7777C13.8262 13.0391 8.34437 17.6855 5.44427 24.2743C3.84107 27.9163 3.50587 29.7671 2.74417 39.1842C1.75507 51.4134 1.75527 59.2039 2.74517 71.5831C3.33467 78.9559 3.65987 81.2954 4.45097 83.8545C6.24157 89.6474 10.0098 94.3946 14.9376 97.0656C17.0615 98.2168 19.3686 98.9582 21.6376 99.2185C24.5965 99.5581 36.0599 99.8827 45.0876 99.8827C54.1153 99.8827 65.5787 99.5581 68.5376 99.2185C72.5023 98.7636 76.5576 96.8161 79.5454 93.9325C83.731 89.8927 86.0588 84.9561 86.7825 78.5846C87.207 74.8478 87.7245 68.248 88.0047 62.9988C88.1674 59.9523 88.1684 50.7911 88.0065 47.8239C87.6893 42.0117 86.9864 33.3595 86.6318 30.9026C86.2884 28.5225 85.7165 26.5232 84.7391 24.2862C81.8705 17.7199 76.3508 13.0394 69.9876 11.7777C69.343 11.6499 67.339 11.382 67.027 11.382C67.0053 11.382 66.9876 13.7646 66.9876 16.6766C66.9876 20.6469 66.9576 22.0044 66.8676 22.1041C66.6909 22.2999 66.3422 22.2659 66.1531 22.0345C66.004 21.852 65.9876 21.3142 65.9876 16.6169V11.402L65.1626 11.3351C63.1127 11.1689 51.2726 10.8382 47.1126 10.8309L45.5876 10.8282V16.3586C45.5876 21.2385 45.5691 21.9094 45.4305 22.063C45.2298 22.2854 44.9454 22.2854 44.7447 22.063C44.6061 21.9094 44.5876 21.2385 44.5876 16.3586V10.8282L42.2126 10.8467C40.9064 10.8569 38.1051 10.9013 35.9876 10.9454ZM22.8099 46.6672C22.6858 46.7634 22.5876 46.9563 22.5876 47.1039C22.5876 47.2516 22.6858 47.4444 22.8099 47.5407C23.0094 47.6955 25.2809 47.7129 45.0349 47.7115C62.5142 47.7103 67.089 47.6812 67.2876 47.5705C67.6298 47.3796 67.6738 46.9064 67.3711 46.6716C67.164 46.5109 65.1243 46.4947 45.0876 46.4947C25.2875 46.4947 23.0094 46.5123 22.8099 46.6672ZM22.8099 70.1495C22.6858 70.2457 22.5876 70.4386 22.5876 70.5862C22.5876 71.2239 22.0705 71.1954 33.6376 71.1954C45.2047 71.1954 44.6876 71.2239 44.6876 70.5862C44.6876 69.9486 45.2047 69.977 33.6376 69.977C24.2006 69.977 23.0076 69.9961 22.8099 70.1495Z" fill="black"/>
<path fill-rule="evenodd" clip-rule="evenodd" d="M23.3991 1.15083C23.1897 1.31333 23.1876 1.35974 23.1876 5.77641V10.2378L21.9126 10.3746C19.0156 10.6854 16.7427 11.4009 14.2538 12.7854C9.99847 15.1526 6.62177 18.9742 4.48337 23.8432C3.12507 26.9357 2.65567 28.9455 2.19197 33.6536C0.818369 47.6003 0.652169 57.6288 1.58897 70.0324C1.86227 73.6515 2.25427 77.9728 2.44297 79.4475C3.16467 85.0888 5.42027 90.041 8.99717 93.8375C12.7414 97.8115 17.2736 100.035 22.4376 100.431C32.3174 101.19 57.8578 101.19 67.7376 100.431C72.8023 100.043 77.2021 97.9282 80.9264 94.093C84.6366 90.2724 86.9893 85.2256 87.7282 79.5029C87.9391 77.869 88.4465 72.1228 88.6818 68.7032C89.0888 62.7872 89.1361 61.4033 89.1361 55.4114C89.1361 51.776 89.0858 48.5612 89.008 47.2147C88.6588 41.1759 88.0579 33.8173 87.6847 31.0085C87.3232 28.2887 86.7925 26.3652 85.7382 23.9539C83.2712 18.3117 79.3227 14.2057 74.1366 11.8893C72.3796 11.1047 70.4649 10.6109 68.2626 10.3746L66.9876 10.2378V5.77641C66.9876 1.35974 66.9855 1.31333 66.7761 1.15083C66.6598 1.06056 66.4911 1.01493 66.4011 1.04926C65.9953 1.20445 65.9876 1.29328 65.9877 5.83722V10.219L64.3127 10.1438C60.2464 9.96124 55.5627 9.82832 50.7626 9.7592L45.5876 9.68455V5.49606V1.30746L45.3376 1.12602C45.106 0.957992 45.0692 0.957992 44.8376 1.12602L44.5876 1.30746V5.49606V9.68455L39.4126 9.75931C34.5713 9.8291 29.7787 9.96478 25.8625 10.1429L24.1875 10.219V5.83722C24.1876 1.29328 24.1799 1.20445 23.7741 1.04926C23.6841 1.01493 23.5154 1.06056 23.3991 1.15083ZM35.9876 10.9454C31.7683 11.0333 26.1812 11.2323 24.9626 11.3378L24.1876 11.4051V16.6377C24.1876 21.5664 24.177 21.8811 24.0047 22.0537C23.7899 22.2691 23.4769 22.2917 23.3076 22.1041C23.2176 22.0044 23.1876 20.6469 23.1876 16.6766C23.1876 13.7646 23.1699 11.382 23.1482 11.382C22.8362 11.382 20.8322 11.6499 20.1876 11.7777C13.8262 13.0391 8.34437 17.6855 5.44427 24.2743C3.84107 27.9163 3.50587 29.7671 2.74417 39.1842C1.75507 51.4134 1.75527 59.2039 2.74517 71.5831C3.33467 78.9559 3.65987 81.2954 4.45097 83.8545C6.24157 89.6474 10.0098 94.3946 14.9376 97.0656C17.0615 98.2168 19.3686 98.9582 21.6376 99.2185C24.5965 99.5581 36.0599 99.8827 45.0876 99.8827C54.1153 99.8827 65.5787 99.5581 68.5376 99.2185C72.5023 98.7636 76.5576 96.8161 79.5454 93.9325C83.731 89.8927 86.0588 84.9561 86.7825 78.5846C87.207 74.8478 87.7245 68.248 88.0047 62.9988C88.1674 59.9523 88.1684 50.7911 88.0065 47.8239C87.6893 42.0117 86.9864 33.3595 86.6318 30.9026C86.2884 28.5225 85.7165 26.5232 84.7391 24.2862C81.8705 17.7199 76.3508 13.0394 69.9876 11.7777C69.343 11.6499 67.339 11.382 67.027 11.382C67.0053 11.382 66.9876 13.7646 66.9876 16.6766C66.9876 20.6469 66.9576 22.0044 66.8676 22.1041C66.6909 22.2999 66.3422 22.2659 66.1531 22.0345C66.004 21.852 65.9876 21.3142 65.9876 16.6169V11.402L65.1626 11.3351C63.1127 11.1689 51.2726 10.8382 47.1126 10.8309L45.5876 10.8282V16.3586C45.5876 21.2385 45.5691 21.9094 45.4305 22.063C45.2298 22.2854 44.9454 22.2854 44.7447 22.063C44.6061 21.9094 44.5876 21.2385 44.5876 16.3586V10.8282L42.2126 10.8467C40.9064 10.8569 38.1051 10.9013 35.9876 10.9454ZM22.8099 46.6672C22.6858 46.7634 22.5876 46.9563 22.5876 47.1039C22.5876 47.2516 22.6858 47.4444 22.8099 47.5407C23.0094 47.6955 25.2809 47.7129 45.0349 47.7115C62.5142 47.7103 67.089 47.6812 67.2876 47.5705C67.6298 47.3796 67.6738 46.9064 67.3711 46.6716C67.164 46.5109 65.1243 46.4947 45.0876 46.4947C25.2875 46.4947 23.0094 46.5123 22.8099 46.6672ZM22.8099 70.1495C22.6858 70.2457 22.5876 70.4386 22.5876 70.5862C22.5876 71.2239 22.0705 71.1954 33.6376 71.1954C45.2047 71.1954 44.6876 71.2239 44.6876 70.5862C44.6876 69.9486 45.2047 69.977 33.6376 69.977C24.2006 69.977 23.0076 69.9961 22.8099 70.1495Z" stroke="black" stroke-width="2" mask="url(#path-1-outside-1_607_31)"/>
</svg>
