<svg width="96" height="96" viewBox="0 0 96 96" fill="none" xmlns="http://www.w3.org/2000/svg">
<mask id="path-1-outside-1_607_37" maskUnits="userSpaceOnUse" x="-1" y="0" width="97" height="96" fill="black">
<rect fill="white" x="-1" width="97" height="96"/>
<path fill-rule="evenodd" clip-rule="evenodd" d="M44.68 1.03904C37.8973 1.65504 31.899 4.02624 26.4818 8.23304C25.0384 9.35404 22.2857 12.0805 21.1394 13.5247C18.0181 17.4573 15.9069 21.6727 14.7288 26.3247C13.9321 29.471 13.6684 31.6989 13.6635 35.3247C13.6578 39.639 14.1722 43.1804 15.3447 46.898C16.2083 49.6361 17.591 52.5609 19.0951 54.8312C22.0521 59.2943 27.5126 65.2641 32.68 69.6832C35.9564 72.4852 42.8338 77.5062 44.6378 78.4134C46.7757 79.4885 49.5144 79.3955 51.58 78.1776C53.3904 77.1103 58.7965 73.1846 61.63 70.8799C67.3629 66.2167 73.2522 59.9378 76.5951 54.9247C79.144 51.1022 80.884 46.4894 81.6684 41.4747C82.2884 37.5108 82.2516 32.5361 81.5745 28.7654C80.5695 23.1685 78.2632 18.1141 74.6206 13.5247C73.4743 12.0805 70.7216 9.35404 69.2782 8.23304C64.3281 4.38904 58.9334 2.09564 52.78 1.21954C51.6723 1.06184 45.8564 0.93224 44.68 1.03904ZM44.58 2.08464C31.5193 3.21714 20.2804 12.1987 16.25 24.7247C15.1443 28.1608 14.681 31.3219 14.6803 35.4336C14.6797 39.5542 15.2193 43.1297 16.3874 46.7439C17.6726 50.7203 19.3363 53.7297 22.3107 57.458C27.0558 63.4058 31.7852 67.9422 38.33 72.8235C42.3748 75.8402 44.6198 77.3481 45.6358 77.7305C47.4971 78.4311 49.5034 78.2251 51.28 77.1508C53.1656 76.0106 58.6173 72.0236 61.23 69.8739C66.3011 65.7016 70.7391 61.0867 74.6486 55.9207C77.5611 52.0721 79.5761 47.3542 80.5193 42.1747C81.1517 38.7026 81.2573 33.6242 80.7679 30.2247C79.6767 22.6447 76.2079 15.9865 70.6351 10.7749C65.2778 5.76494 58.3869 2.70864 51.03 2.07944C49.6456 1.96104 45.9712 1.96394 44.58 2.08464ZM46.08 22.4377C42.6821 22.8618 40.0689 24.3076 38.5357 26.6119C37.2425 28.5553 36.68 30.6661 36.68 33.5747C36.68 37.3621 37.6869 40.0507 39.8702 42.0932C40.7422 42.909 41.3923 43.3299 42.5481 43.8271C44.1277 44.5066 45.6114 44.7685 47.88 44.7685C50.1486 44.7685 51.6323 44.5066 53.2119 43.8271C54.3677 43.3299 55.0178 42.909 55.8898 42.0932C58.081 40.0433 59.086 37.3423 59.0769 33.5273C59.0734 32.0262 58.9665 31.0712 58.6688 29.8814C57.8669 26.6755 55.7295 24.2452 52.7584 23.1609C51.3159 22.6344 50.227 22.4572 48.23 22.424C47.24 22.4075 46.2725 22.4137 46.08 22.4377ZM46.0801 23.4874C41.6019 24.0057 38.8004 26.541 37.9097 30.8816C37.6489 32.1523 37.6704 35.1939 37.9492 36.4747C38.8661 40.6878 41.5572 43.0994 45.98 43.6715C48.5223 44.0004 51.2801 43.6211 53.23 42.6745C55.7097 41.4707 57.2347 39.3674 57.8476 36.3059C58.092 35.0853 58.0931 32.0728 57.8496 30.8816C57.0679 27.0567 54.8551 24.6757 51.2516 23.7822C49.7004 23.3976 47.7949 23.289 46.0801 23.4874ZM15.38 68.8727C13.0873 69.1718 11.0582 70.5365 9.80114 72.6247C9.40674 73.2799 1.46774 88.8043 1.26004 89.3265C0.506341 91.2214 1.44724 93.5012 3.35594 94.4054L4.03004 94.7247H47.8852H91.7404L92.417 94.3813C93.2228 93.9723 93.9468 93.2256 94.3367 92.4013C94.7177 91.5961 94.7862 90.3717 94.4977 89.5247C94.3319 89.0379 87.16 75.1418 85.9242 72.913C85.3754 71.923 84.7398 71.1508 83.9676 70.5355C82.623 69.4643 81.2436 68.9394 79.4393 68.8126C78.4305 68.7417 78.18 68.8425 78.18 69.3196C78.18 69.668 78.352 69.7463 79.28 69.8204C80.4625 69.9148 81.1934 70.1088 82.1689 70.587C83.1965 71.0907 84.2534 72.0895 84.8541 73.1247C85.6764 74.5416 93.396 89.4405 93.5488 89.9054C93.744 90.4994 93.683 91.3631 93.4008 92.001C93.1451 92.579 92.4913 93.2341 91.8949 93.5098L91.43 93.7247H47.83H4.23004L3.71774 93.4544C3.07954 93.1178 2.44444 92.4084 2.23754 91.8013C2.00964 91.1324 2.04104 90.1371 2.30974 89.5125C2.60504 88.8257 10.5429 73.3332 10.8599 72.8247C10.9971 72.6047 11.4339 72.1037 11.8307 71.7115C12.9894 70.5659 14.3879 69.9715 16.28 69.8204C17.203 69.7467 17.38 69.6675 17.38 69.328C17.38 68.8056 16.8387 68.6824 15.38 68.8727Z"/>
</mask>
<path fill-rule="evenodd" clip-rule="evenodd" d="M44.68 1.03904C37.8973 1.65504 31.899 4.02624 26.4818 8.23304C25.0384 9.35404 22.2857 12.0805 21.1394 13.5247C18.0181 17.4573 15.9069 21.6727 14.7288 26.3247C13.9321 29.471 13.6684 31.6989 13.6635 35.3247C13.6578 39.639 14.1722 43.1804 15.3447 46.898C16.2083 49.6361 17.591 52.5609 19.0951 54.8312C22.0521 59.2943 27.5126 65.2641 32.68 69.6832C35.9564 72.4852 42.8338 77.5062 44.6378 78.4134C46.7757 79.4885 49.5144 79.3955 51.58 78.1776C53.3904 77.1103 58.7965 73.1846 61.63 70.8799C67.3629 66.2167 73.2522 59.9378 76.5951 54.9247C79.144 51.1022 80.884 46.4894 81.6684 41.4747C82.2884 37.5108 82.2516 32.5361 81.5745 28.7654C80.5695 23.1685 78.2632 18.1141 74.6206 13.5247C73.4743 12.0805 70.7216 9.35404 69.2782 8.23304C64.3281 4.38904 58.9334 2.09564 52.78 1.21954C51.6723 1.06184 45.8564 0.93224 44.68 1.03904ZM44.58 2.08464C31.5193 3.21714 20.2804 12.1987 16.25 24.7247C15.1443 28.1608 14.681 31.3219 14.6803 35.4336C14.6797 39.5542 15.2193 43.1297 16.3874 46.7439C17.6726 50.7203 19.3363 53.7297 22.3107 57.458C27.0558 63.4058 31.7852 67.9422 38.33 72.8235C42.3748 75.8402 44.6198 77.3481 45.6358 77.7305C47.4971 78.4311 49.5034 78.2251 51.28 77.1508C53.1656 76.0106 58.6173 72.0236 61.23 69.8739C66.3011 65.7016 70.7391 61.0867 74.6486 55.9207C77.5611 52.0721 79.5761 47.3542 80.5193 42.1747C81.1517 38.7026 81.2573 33.6242 80.7679 30.2247C79.6767 22.6447 76.2079 15.9865 70.6351 10.7749C65.2778 5.76494 58.3869 2.70864 51.03 2.07944C49.6456 1.96104 45.9712 1.96394 44.58 2.08464ZM46.08 22.4377C42.6821 22.8618 40.0689 24.3076 38.5357 26.6119C37.2425 28.5553 36.68 30.6661 36.68 33.5747C36.68 37.3621 37.6869 40.0507 39.8702 42.0932C40.7422 42.909 41.3923 43.3299 42.5481 43.8271C44.1277 44.5066 45.6114 44.7685 47.88 44.7685C50.1486 44.7685 51.6323 44.5066 53.2119 43.8271C54.3677 43.3299 55.0178 42.909 55.8898 42.0932C58.081 40.0433 59.086 37.3423 59.0769 33.5273C59.0734 32.0262 58.9665 31.0712 58.6688 29.8814C57.8669 26.6755 55.7295 24.2452 52.7584 23.1609C51.3159 22.6344 50.227 22.4572 48.23 22.424C47.24 22.4075 46.2725 22.4137 46.08 22.4377ZM46.0801 23.4874C41.6019 24.0057 38.8004 26.541 37.9097 30.8816C37.6489 32.1523 37.6704 35.1939 37.9492 36.4747C38.8661 40.6878 41.5572 43.0994 45.98 43.6715C48.5223 44.0004 51.2801 43.6211 53.23 42.6745C55.7097 41.4707 57.2347 39.3674 57.8476 36.3059C58.092 35.0853 58.0931 32.0728 57.8496 30.8816C57.0679 27.0567 54.8551 24.6757 51.2516 23.7822C49.7004 23.3976 47.7949 23.289 46.0801 23.4874ZM15.38 68.8727C13.0873 69.1718 11.0582 70.5365 9.80114 72.6247C9.40674 73.2799 1.46774 88.8043 1.26004 89.3265C0.506341 91.2214 1.44724 93.5012 3.35594 94.4054L4.03004 94.7247H47.8852H91.7404L92.417 94.3813C93.2228 93.9723 93.9468 93.2256 94.3367 92.4013C94.7177 91.5961 94.7862 90.3717 94.4977 89.5247C94.3319 89.0379 87.16 75.1418 85.9242 72.913C85.3754 71.923 84.7398 71.1508 83.9676 70.5355C82.623 69.4643 81.2436 68.9394 79.4393 68.8126C78.4305 68.7417 78.18 68.8425 78.18 69.3196C78.18 69.668 78.352 69.7463 79.28 69.8204C80.4625 69.9148 81.1934 70.1088 82.1689 70.587C83.1965 71.0907 84.2534 72.0895 84.8541 73.1247C85.6764 74.5416 93.396 89.4405 93.5488 89.9054C93.744 90.4994 93.683 91.3631 93.4008 92.001C93.1451 92.579 92.4913 93.2341 91.8949 93.5098L91.43 93.7247H47.83H4.23004L3.71774 93.4544C3.07954 93.1178 2.44444 92.4084 2.23754 91.8013C2.00964 91.1324 2.04104 90.1371 2.30974 89.5125C2.60504 88.8257 10.5429 73.3332 10.8599 72.8247C10.9971 72.6047 11.4339 72.1037 11.8307 71.7115C12.9894 70.5659 14.3879 69.9715 16.28 69.8204C17.203 69.7467 17.38 69.6675 17.38 69.328C17.38 68.8056 16.8387 68.6824 15.38 68.8727Z" fill="black"/>
<path fill-rule="evenodd" clip-rule="evenodd" d="M44.68 1.03904C37.8973 1.65504 31.899 4.02624 26.4818 8.23304C25.0384 9.35404 22.2857 12.0805 21.1394 13.5247C18.0181 17.4573 15.9069 21.6727 14.7288 26.3247C13.9321 29.471 13.6684 31.6989 13.6635 35.3247C13.6578 39.639 14.1722 43.1804 15.3447 46.898C16.2083 49.6361 17.591 52.5609 19.0951 54.8312C22.0521 59.2943 27.5126 65.2641 32.68 69.6832C35.9564 72.4852 42.8338 77.5062 44.6378 78.4134C46.7757 79.4885 49.5144 79.3955 51.58 78.1776C53.3904 77.1103 58.7965 73.1846 61.63 70.8799C67.3629 66.2167 73.2522 59.9378 76.5951 54.9247C79.144 51.1022 80.884 46.4894 81.6684 41.4747C82.2884 37.5108 82.2516 32.5361 81.5745 28.7654C80.5695 23.1685 78.2632 18.1141 74.6206 13.5247C73.4743 12.0805 70.7216 9.35404 69.2782 8.23304C64.3281 4.38904 58.9334 2.09564 52.78 1.21954C51.6723 1.06184 45.8564 0.93224 44.68 1.03904ZM44.58 2.08464C31.5193 3.21714 20.2804 12.1987 16.25 24.7247C15.1443 28.1608 14.681 31.3219 14.6803 35.4336C14.6797 39.5542 15.2193 43.1297 16.3874 46.7439C17.6726 50.7203 19.3363 53.7297 22.3107 57.458C27.0558 63.4058 31.7852 67.9422 38.33 72.8235C42.3748 75.8402 44.6198 77.3481 45.6358 77.7305C47.4971 78.4311 49.5034 78.2251 51.28 77.1508C53.1656 76.0106 58.6173 72.0236 61.23 69.8739C66.3011 65.7016 70.7391 61.0867 74.6486 55.9207C77.5611 52.0721 79.5761 47.3542 80.5193 42.1747C81.1517 38.7026 81.2573 33.6242 80.7679 30.2247C79.6767 22.6447 76.2079 15.9865 70.6351 10.7749C65.2778 5.76494 58.3869 2.70864 51.03 2.07944C49.6456 1.96104 45.9712 1.96394 44.58 2.08464ZM46.08 22.4377C42.6821 22.8618 40.0689 24.3076 38.5357 26.6119C37.2425 28.5553 36.68 30.6661 36.68 33.5747C36.68 37.3621 37.6869 40.0507 39.8702 42.0932C40.7422 42.909 41.3923 43.3299 42.5481 43.8271C44.1277 44.5066 45.6114 44.7685 47.88 44.7685C50.1486 44.7685 51.6323 44.5066 53.2119 43.8271C54.3677 43.3299 55.0178 42.909 55.8898 42.0932C58.081 40.0433 59.086 37.3423 59.0769 33.5273C59.0734 32.0262 58.9665 31.0712 58.6688 29.8814C57.8669 26.6755 55.7295 24.2452 52.7584 23.1609C51.3159 22.6344 50.227 22.4572 48.23 22.424C47.24 22.4075 46.2725 22.4137 46.08 22.4377ZM46.0801 23.4874C41.6019 24.0057 38.8004 26.541 37.9097 30.8816C37.6489 32.1523 37.6704 35.1939 37.9492 36.4747C38.8661 40.6878 41.5572 43.0994 45.98 43.6715C48.5223 44.0004 51.2801 43.6211 53.23 42.6745C55.7097 41.4707 57.2347 39.3674 57.8476 36.3059C58.092 35.0853 58.0931 32.0728 57.8496 30.8816C57.0679 27.0567 54.8551 24.6757 51.2516 23.7822C49.7004 23.3976 47.7949 23.289 46.0801 23.4874ZM15.38 68.8727C13.0873 69.1718 11.0582 70.5365 9.80114 72.6247C9.40674 73.2799 1.46774 88.8043 1.26004 89.3265C0.506341 91.2214 1.44724 93.5012 3.35594 94.4054L4.03004 94.7247H47.8852H91.7404L92.417 94.3813C93.2228 93.9723 93.9468 93.2256 94.3367 92.4013C94.7177 91.5961 94.7862 90.3717 94.4977 89.5247C94.3319 89.0379 87.16 75.1418 85.9242 72.913C85.3754 71.923 84.7398 71.1508 83.9676 70.5355C82.623 69.4643 81.2436 68.9394 79.4393 68.8126C78.4305 68.7417 78.18 68.8425 78.18 69.3196C78.18 69.668 78.352 69.7463 79.28 69.8204C80.4625 69.9148 81.1934 70.1088 82.1689 70.587C83.1965 71.0907 84.2534 72.0895 84.8541 73.1247C85.6764 74.5416 93.396 89.4405 93.5488 89.9054C93.744 90.4994 93.683 91.3631 93.4008 92.001C93.1451 92.579 92.4913 93.2341 91.8949 93.5098L91.43 93.7247H47.83H4.23004L3.71774 93.4544C3.07954 93.1178 2.44444 92.4084 2.23754 91.8013C2.00964 91.1324 2.04104 90.1371 2.30974 89.5125C2.60504 88.8257 10.5429 73.3332 10.8599 72.8247C10.9971 72.6047 11.4339 72.1037 11.8307 71.7115C12.9894 70.5659 14.3879 69.9715 16.28 69.8204C17.203 69.7467 17.38 69.6675 17.38 69.328C17.38 68.8056 16.8387 68.6824 15.38 68.8727Z" stroke="black" stroke-width="2" mask="url(#path-1-outside-1_607_37)"/>
</svg>
