<svg width="628" height="502" viewBox="0 0 628 502" fill="none" xmlns="http://www.w3.org/2000/svg">
<path d="M545.881 308.651C545.881 308.528 585.319 107.512 585.605 106.072C569.183 103.858 567.556 103.263 479.868 98.2907C401.777 93.8681 226.85 86.5088 224.998 86.4385C220.866 106.93 217.217 237.669 217.211 237.967C217.217 238.123 217.174 238.277 217.085 238.416C216.997 238.554 216.866 238.673 216.705 238.76L217.035 249.583C219.437 253.077 220.136 257.158 218.997 261.039C218.719 262.306 218.214 263.535 217.496 264.686L217.619 268.672C222.772 265.01 224.546 263.963 227.667 264.154C229.714 264.285 246.278 267.111 260.414 269.214C284.19 272.771 309.646 275.09 333.353 282.266C333.656 282.361 333.907 282.54 334.059 282.771C334.211 283.001 334.255 283.267 334.182 283.521C334.214 283.678 334.233 283.837 334.238 283.996C339.924 284.754 345.681 285.524 351.508 286.307C351.65 286.125 351.857 285.98 352.101 285.89C352.346 285.801 352.618 285.771 352.884 285.805C496.859 304.658 533.208 309.176 532.677 312.474C536.999 313.093 541.233 314.057 545.316 315.35L546.587 309.771C546.341 309.663 546.142 309.499 546.016 309.299C545.89 309.099 545.843 308.873 545.881 308.651ZM473.57 263.675C471.453 265.374 466.935 265.198 464.247 260.63C461.914 256.684 459.851 252.628 457.653 248.632C455.279 249.955 453.292 254.106 450.086 255.934C449.917 256.029 449.721 256.088 449.516 256.103C449.31 256.119 449.103 256.091 448.916 256.022C448.729 255.953 448.567 255.846 448.448 255.712C448.328 255.577 448.255 255.42 448.236 255.256C448.061 255.287 447.879 255.284 447.705 255.248C447.531 255.212 447.371 255.143 447.236 255.048C447.102 254.953 446.998 254.834 446.932 254.7C446.866 254.567 446.841 254.423 446.858 254.28C447.172 250.736 448.472 237.335 448.786 234.2C449.122 230.989 451.86 230.625 454.692 231.941C455.386 232.269 466.8 239.358 473.149 243.236C473.363 243.345 473.534 243.5 473.642 243.684C473.75 243.868 473.789 244.073 473.756 244.274C473.723 244.476 473.619 244.666 473.456 244.821C473.293 244.977 473.077 245.092 472.835 245.153C470.342 245.69 467.849 246.243 465.362 246.795C467.271 250.113 473.039 260.045 473.978 261.697C474.225 262.009 474.32 262.383 474.245 262.748C474.17 263.113 473.929 263.442 473.57 263.675Z" fill="#ACEAC7"/>
<path d="M283.273 292.221C282.284 292.322 281.346 292.708 280.356 292.821C278.962 292.984 277.992 291.566 279.355 290.916C281.616 289.834 282.646 289.264 283.226 287.733C282.177 287.713 281.133 287.872 280.166 288.199C279.199 288.525 278.329 289.013 277.615 289.628C276.425 290.617 274.748 289.176 275.766 288.15C276.916 287.069 277.857 285.857 278.557 284.553C278.695 284.267 279.009 283.589 278.742 283.298C278.476 283.007 277.395 283.298 277.006 283.358C273.775 284.186 270.866 285.666 268.559 287.655C268.354 287.811 268.092 287.909 267.811 287.935C267.531 287.962 267.247 287.915 267.002 287.802C266.757 287.689 266.565 287.517 266.453 287.309C266.341 287.102 266.315 286.871 266.38 286.651C266.604 285.593 266.652 284.515 266.522 283.446C264.177 284.65 262.31 286.364 261.14 288.386C261.212 288.737 261.067 288.353 266.164 299.766C266.753 299.094 267.247 298.37 267.636 297.61C283.562 295.705 286.37 291.937 283.273 292.221Z" fill="#FFCEB6"/>
<path d="M511.268 309.292C508.338 308.79 505.157 308.288 501.772 307.733C504.937 308.23 508.103 308.75 511.268 309.292ZM131.723 217.019C130.75 213.756 129.795 210.481 128.822 207.213C124.534 210.526 121.285 214.603 119.342 219.11C121.475 212.365 121.737 205.329 120.11 198.494C118.482 191.66 115.005 185.192 109.922 179.545C98.7973 190.371 92.6086 203.899 92.3728 217.908C91.87 213.702 89.8202 209.71 86.4822 206.435C83.1758 207.1 82.2369 210.556 82.7393 213.249C83.2417 215.942 84.5229 218.786 83.2072 221.304C78.0978 210.958 69.9072 201.766 59.3463 194.525C57.2488 193.084 54.1779 191.681 51.9045 192.958C50.7004 193.828 49.9598 195.034 49.8353 196.327C46.6946 210.135 50.0185 224.384 59.1736 236.359C63.5031 237.113 67.9564 237.302 72.3616 236.921C94.5897 235.975 118.41 234.537 136.634 224.308C142.327 215.496 146.968 202.788 143.856 193.059C138.244 200.479 134.149 208.568 131.723 217.019Z" fill="#ACEAC7"/>
<path d="M226.691 316.731C225.987 316.43 225.265 316.144 224.53 315.88L225.202 322.444C209.684 331.387 193.108 332.514 179.434 327.928C178.347 334.69 186.342 340.935 202.255 338.124C208.288 336.944 214.165 335.299 219.802 333.214C217.104 339.647 212.806 352.197 218.062 357.576C225.708 365.435 242.931 342.097 243.81 328.817C244.554 318.209 232.048 316.831 226.691 316.731Z" fill="#FF9F48"/>
<path d="M202.256 338.124C200.686 342.032 198.77 348.069 200.792 350.825C203.738 354.871 209.098 356.347 215.723 351.914C215.641 345.527 217.039 339.183 219.846 333.202C214.196 335.296 208.305 336.944 202.256 338.124Z" fill="#F55555"/>
<path d="M201.279 250.872C200.927 250.07 200.65 249.55 200.358 248.987C199.892 248.987 200.203 248.69 200.936 251.169C201.042 251.064 201.157 250.965 201.279 250.872Z" fill="#FF8684"/>
<path d="M203.179 248.854C203.317 249.133 203.455 249.409 203.581 249.697C210.655 247.521 216.094 255.337 211.588 260.603C212.862 262.91 213.184 265.482 212.505 267.945C215.331 267.471 217.886 265.641 218.998 261.045C220.081 257.692 219.705 254.144 217.931 250.984C216.157 247.825 213.09 245.242 209.236 243.661C208.689 243.661 208.149 243.686 207.647 243.724C207.486 244.076 207.275 244.413 207.019 244.728C209.465 247.682 205.672 248.58 203.179 248.854Z" fill="#FFCEB6"/>
<path d="M210.114 273.47C211.539 271.547 212.41 269.395 212.664 267.169C212.919 264.944 212.551 262.701 211.587 260.604C207.05 265.875 198.044 262.461 198.606 255.679C198.72 254.005 199.541 252.412 200.936 251.161C200.714 250.426 200.449 249.7 200.142 248.985H200.358C197.532 243.824 192.873 239.663 185.789 239.223C185.742 239.261 185.685 239.314 185.638 239.349C183.513 239.241 181.38 239.361 179.295 239.705C157.818 242.853 166.462 259.815 172.387 261.387C172.387 261.387 156.844 273.45 169.285 280.551C169.285 280.551 167.756 289.167 176.78 293.138C180.507 294.627 184.658 295.304 188.816 295.104C210.13 294.777 217.603 282.506 210.114 273.47Z" fill="#7D4AB4"/>
<path d="M203.178 248.853C205.69 248.58 209.48 247.691 207.003 244.724C207.251 244.406 207.462 244.07 207.631 243.72C208.491 241.981 209.097 238.397 201.216 236.567C199.172 235.993 196.999 235.776 194.842 235.93C192.684 236.084 190.593 236.605 188.709 237.458C192.08 238.302 195.15 239.776 197.667 241.758C200.183 243.739 202.072 246.172 203.178 248.853Z" fill="#7D4AB4"/>
<path d="M254.522 288.738C247.642 290.997 234.479 300.937 221.1 290.817C217.225 287.893 216.923 286.281 212.537 283.352C209.227 295.202 186.528 297.453 176.778 293.141C172.879 303.585 174.844 317.488 175.504 326.333C176.767 326.95 178.092 327.481 179.466 327.922C193.128 332.513 209.824 331.346 225.235 322.435L223.888 309.31C223.888 309.31 247.438 313.218 262.073 303.271C276.546 293.445 262.164 286.188 254.522 288.738ZM220.707 306.587C219.608 303.604 218.044 300.743 216.054 298.071C215.901 297.832 215.869 297.557 215.963 297.3C216.057 297.043 216.27 296.825 216.559 296.69C216.848 296.556 217.19 296.514 217.516 296.575C217.842 296.635 218.127 296.793 218.311 297.016C220.406 299.852 222.058 302.881 223.232 306.037C223.307 306.301 223.252 306.577 223.078 306.809C222.904 307.04 222.625 307.209 222.299 307.28C221.973 307.351 221.625 307.319 221.329 307.19C221.032 307.06 220.809 306.845 220.707 306.587ZM179.297 239.706C183.376 238.829 187.71 239.126 191.543 240.544C196.243 242.927 199.702 246.592 201.277 250.86C199.676 252.146 198.725 253.858 198.605 255.669C198.043 262.429 207.083 265.882 211.585 260.594C216.151 255.265 210.442 247.411 203.547 249.675C199.465 240.732 190.987 235.183 179.102 237.65C178.824 237.727 178.587 237.876 178.426 238.073C178.264 238.269 178.189 238.503 178.211 238.737C178.234 238.972 178.352 239.194 178.548 239.369C178.745 239.544 179.008 239.662 179.297 239.706Z" fill="#B26EE6"/>
<path d="M419.372 218.621L442.922 221.327C443.17 221.374 443.43 221.363 443.671 221.295C443.911 221.227 444.122 221.105 444.278 220.943C444.434 220.782 444.528 220.588 444.549 220.385C444.571 220.182 444.518 219.978 444.398 219.798L432.271 203.165C432.168 203.028 432.028 202.913 431.861 202.826C431.694 202.739 431.505 202.683 431.307 202.663C431.11 202.642 430.909 202.658 430.72 202.708C430.531 202.757 430.358 202.841 430.215 202.951C425.733 206.785 422 211.137 419.14 215.86C418.421 217.017 418.019 218.463 419.372 218.621ZM430.937 205.481C434.228 209.999 437.513 214.504 440.793 218.995L421.504 216.779C423.995 212.686 427.168 208.882 430.937 205.471V205.481ZM475.845 222.888C476.009 222.567 479.999 214.158 480.703 212.68C480.775 212.459 480.756 212.224 480.648 212.012C480.541 211.8 480.351 211.622 480.106 211.503C474.19 208.42 467.173 206.973 460.13 207.384L460.082 207.12C459.831 205.792 457.307 206.355 457.57 207.67C458.461 212.296 457.979 217.025 456.164 221.475C456.072 221.741 456.116 222.024 456.287 222.264C456.457 222.503 456.739 222.679 457.071 222.753C461.376 223.627 465.739 224.305 470.14 224.783C473.007 225.089 474.677 225.147 475.845 222.888ZM472.445 222.888C471.273 222.903 470.104 222.798 468.966 222.574C465.625 222.18 462.309 221.658 459.031 221.011C460.363 217.256 460.831 213.338 460.409 209.45C466.514 209.131 472.595 210.315 477.833 212.843C477.035 214.535 474.498 219.846 474.043 220.822C473.716 221.49 473.493 222.77 472.445 222.888ZM498.579 209.467C496.277 209.88 494.203 210.874 492.663 212.302C491.123 213.73 490.198 215.516 490.025 217.396C490.005 217.538 490.028 217.682 490.091 217.816C490.154 217.95 490.257 218.069 490.39 218.165C490.523 218.261 490.683 218.329 490.856 218.365C491.029 218.401 491.211 218.404 491.385 218.373C491.724 219.554 492.438 220.646 493.458 221.543C494.478 222.44 495.77 223.112 497.209 223.494C498.648 223.877 500.186 223.957 501.674 223.727C503.163 223.497 504.553 222.964 505.71 222.18C507.24 221.175 508.315 219.794 508.768 218.253C509.221 216.711 509.027 215.093 508.216 213.647C507.406 212.202 506.023 211.01 504.282 210.255C502.54 209.499 500.536 209.223 498.579 209.467ZM504.799 220.052C503.847 220.876 502.589 221.435 501.21 221.647C499.832 221.859 498.405 221.712 497.138 221.229C495.931 220.75 494.944 219.98 494.313 219.029C493.683 218.078 493.442 216.992 493.624 215.925C493.806 214.858 494.402 213.864 495.328 213.083C496.255 212.301 497.464 211.771 498.787 211.568C500.109 211.365 501.479 211.498 502.701 211.95C503.924 212.401 504.939 213.148 505.603 214.085C506.267 215.022 506.546 216.101 506.402 217.172C506.258 218.242 505.697 219.249 504.799 220.052ZM394.883 119.863C391.521 118.035 371.616 116.893 367.565 116.63C334.413 114.456 253.514 112.009 253.191 112.009C252.909 111.993 252.63 112.062 252.407 112.201C252.184 112.34 252.032 112.539 251.982 112.762C251.602 113.6 245.702 193.192 245.652 193.273C245.654 193.548 245.792 193.811 246.035 194.005C246.279 194.2 246.608 194.31 246.952 194.312C276.895 194.312 381.127 204.959 384.591 204.959C385.341 205.032 385.828 204.419 385.891 203.917C396.391 114.057 396.227 120.593 394.883 119.863ZM383.353 202.715C380.138 202.404 288.145 194.287 276.427 193.511C254.654 192.088 249.706 192.256 248.333 192.196C248.503 189.877 254.334 117.006 254.428 114.087C270.552 114.534 377.441 117.526 392.83 121.341C393.081 121.404 383.605 200.248 383.353 202.715ZM302.015 211.395C284.86 210.924 267.758 209.603 250.808 207.439C249.162 207.226 248.459 209.229 250.12 209.447C267.3 211.666 284.638 213.014 302.031 213.481C303.692 213.526 303.692 211.442 302.015 211.395ZM365.725 217.82C367.211 217.12 366.272 215.617 364.925 215.328C364.507 215.243 369.691 215.536 314.456 212.436C312.779 212.336 312.794 214.427 314.456 214.515C373.663 217.893 365.292 218.024 365.725 217.82ZM254.067 219.964C252.39 219.911 252.39 221.992 254.067 222.042L367.735 225.807C369.412 225.857 369.412 223.779 367.735 223.729C352.986 223.232 262.372 220.225 254.067 219.964ZM374.138 239.188C338.765 238.307 294.63 236.076 251.514 232.577C249.853 232.439 249.853 234.529 251.514 234.655C294.319 238.134 334.316 240.157 374.153 241.269C375.814 241.319 375.814 239.231 374.138 239.188ZM374.028 254.117C359.323 252.732 290.607 246.683 248.742 243.997C247.065 243.887 247.081 245.978 248.742 246.078C267.434 247.283 333.377 252.255 374.028 256.198C375.689 256.361 375.673 254.263 374.028 254.117Z" fill="black"/>
<path d="M285.743 151.74C283.964 156.984 284.245 162.539 286.548 167.651C288.851 172.764 293.064 177.187 298.617 180.321C304.521 183.466 311.48 185.102 318.574 185.013C325.667 184.923 332.559 183.113 338.336 179.822C344.113 176.531 348.503 171.914 350.923 166.583C353.343 161.252 353.679 155.46 351.887 149.973C343.387 122.912 296.237 121.908 285.743 151.74ZM349.485 163.163C348.339 166.874 346.182 170.337 343.168 173.305C340.155 176.273 336.359 178.673 332.052 180.334C327.744 181.994 323.032 182.874 318.25 182.911C313.468 182.948 308.735 182.141 304.388 180.547C288.773 174.774 279.494 157.904 295.91 141.642C319.13 118.63 357.021 138.745 349.485 163.163ZM507.072 140.716C496.104 127.413 475.813 122.822 456.163 125.312C454.502 125.51 455.221 127.528 456.854 127.32C493.206 122.802 520.963 145.796 507.009 168.986C506.243 165.597 504.243 162.464 501.26 159.98C494.873 155.271 487.918 156.697 484.665 164.34C484.074 165.732 483.716 167.18 483.6 168.647C481.446 167.339 473.518 163.539 471.882 164.465C472.075 162.918 472.048 161.359 471.8 159.817C473.41 158.878 474.743 157.668 475.703 156.273C476.408 156.838 477.281 157.25 478.24 157.47C479.2 157.69 480.214 157.71 481.186 157.528C482.896 157.101 484.353 156.189 485.282 154.965C486.211 153.74 486.549 152.286 486.232 150.876C485.991 150.147 485.532 149.475 484.895 148.919C484.257 148.363 483.46 147.939 482.572 147.684C481.684 147.429 480.732 147.35 479.797 147.455C478.863 147.559 477.974 147.843 477.207 148.283C477.135 147.842 480.033 139.862 479.933 140.118C480.089 139.694 480.12 139.246 480.022 138.81C479.925 138.374 479.702 137.962 479.37 137.608C479.039 137.253 478.609 136.964 478.114 136.765C477.62 136.567 477.074 136.462 476.52 136.461C475.216 136.508 473.965 136.885 472.947 137.538C473.036 137.057 472.972 136.566 472.759 136.11C472.546 135.655 472.191 135.25 471.729 134.934C471.266 134.619 470.711 134.402 470.115 134.305C469.519 134.208 468.901 134.234 468.321 134.381C466.573 134.865 464.969 135.634 463.611 136.64C463.52 136.054 463.206 135.504 462.712 135.066C462.217 134.627 461.566 134.321 460.846 134.188C460.126 134.056 459.373 134.103 458.688 134.324C458.003 134.545 457.42 134.93 457.017 135.425C453.736 139.461 454.298 143.959 453.196 145.906C448.872 144.476 442.922 147.98 444.796 151.833C445.414 153.081 446.597 154.098 448.109 154.682C449.621 155.267 451.353 155.376 452.96 154.988C454.166 157.523 456.569 159.578 459.652 160.71C459.822 162.349 459.822 163.996 459.652 165.635C453.287 165.783 452.574 168.414 438.278 175.78C425.372 163.23 425.592 145.691 437.417 135.472C438.545 134.483 436.711 133.005 435.568 133.996C430.307 138.868 427.004 144.893 426.09 151.287C425.176 157.681 426.693 164.147 430.443 169.842C456.97 213.237 537.97 178.167 507.072 140.716ZM477.556 151.062C478.58 147.98 486.734 149.621 482.819 154.182C482.383 154.651 481.822 155.036 481.176 155.309C480.495 155.548 479.73 155.587 479.017 155.417C478.304 155.247 477.689 154.881 477.283 154.383C477.283 152.563 477.515 151.888 477.553 151.062H477.556ZM452.201 153.005C448.065 153.831 445.154 150.136 448.725 148.293C449.247 147.99 449.854 147.795 450.494 147.725C451.133 147.656 451.784 147.714 452.389 147.894C451.842 149.564 451.777 151.312 452.197 153.005H452.201ZM456.873 156.386C455.503 154.925 454.686 153.181 454.519 151.361C454.352 149.54 454.842 147.719 455.931 146.115C456.925 144.591 458.504 143.362 460.437 142.609C462.369 141.856 464.553 141.618 466.667 141.931C469.078 142.425 471.209 143.556 472.714 145.141C474.219 146.726 475.009 148.671 474.956 150.66C474.837 159.152 462.895 162.59 456.873 156.386ZM462.311 161.421C464.676 161.826 467.138 161.651 469.376 160.919C470.299 170.075 463.012 173.163 462.296 167.056C462.343 166.802 462.33 161.682 462.308 161.421H462.311ZM440.046 177.414C447.858 174.852 452.549 168.025 459.755 167.733C461.04 174.418 469.599 173.81 471.584 166.004C475.955 167.216 480.031 169.021 483.635 171.34C483.855 175.854 484.992 180.309 487.001 184.53C479.281 187.625 470.502 188.604 462.017 187.318C453.532 186.033 445.81 182.553 440.042 177.414H440.046ZM489.344 183.589C482.404 173.132 487.196 153.861 498.481 160.818C502.739 163.474 504.058 167.721 505.138 171.742C501.268 176.735 495.816 180.822 489.334 183.589H489.344Z" fill="black"/>
<path d="M457.186 149.071C457.539 149.071 457.877 149.183 458.127 149.382C458.377 149.582 458.517 149.853 458.517 150.135C458.517 150.417 458.377 150.688 458.127 150.887C457.877 151.087 457.539 151.199 457.186 151.199C456.832 151.199 456.494 151.087 456.244 150.887C455.994 150.688 455.854 150.417 455.854 150.135C455.854 149.853 455.994 149.582 456.244 149.382C456.494 149.183 456.832 149.071 457.186 149.071ZM471.391 152.607C471.744 152.607 472.083 152.495 472.332 152.295C472.582 152.096 472.722 151.825 472.722 151.543C472.722 151.261 472.582 150.99 472.332 150.79C472.083 150.591 471.744 150.479 471.391 150.479C471.038 150.479 470.699 150.591 470.45 150.79C470.2 150.99 470.06 151.261 470.06 151.543C470.06 151.825 470.2 152.096 470.45 152.295C470.699 152.495 471.038 152.607 471.391 152.607ZM468.307 154.219C468.128 153.983 467.842 153.812 467.509 153.742C467.176 153.672 466.822 153.708 466.521 153.842C465.695 154.198 464.744 154.321 463.82 154.191C462.896 154.062 462.053 153.688 461.428 153.129C461.181 152.936 460.849 152.828 460.503 152.828C460.157 152.828 459.825 152.936 459.578 153.129C457.763 154.67 463.346 157.617 467.836 155.639C468.127 155.495 468.337 155.268 468.425 155.004C468.512 154.74 468.47 154.459 468.307 154.219ZM490.209 155.484C496.602 157.652 502.493 156.214 503.014 155.534C503.623 154.062 503.846 152.505 503.67 150.961C503.645 150.503 503.48 150.057 503.189 149.662C502.897 149.267 502.489 148.936 502 148.697C501.511 148.458 500.955 148.32 500.383 148.293C499.811 148.266 499.239 148.352 498.718 148.543C498.553 148.236 498.312 147.957 498.01 147.725C497.708 147.493 497.351 147.311 496.96 147.191C496.568 147.07 496.151 147.014 495.732 147.025C495.313 147.036 494.901 147.113 494.52 147.253C494.454 146.696 494.153 146.173 493.665 145.771C493.177 145.369 492.533 145.112 491.838 145.042C491.143 144.972 490.439 145.094 489.842 145.387C489.245 145.68 488.791 146.126 488.554 146.653C487.586 148.888 487.466 151.302 488.209 153.591C488.444 154.823 488.755 154.972 490.209 155.484ZM491.512 147.115C492.14 146.864 492.354 149.796 492.388 150.047C492.405 150.314 492.549 150.566 492.791 150.75C493.033 150.935 493.355 151.037 493.69 151.037C494.024 151.037 494.346 150.935 494.588 150.75C494.83 150.566 494.975 150.314 494.991 150.047C494.991 149.545 495.506 148.857 496.181 149.184C496.699 149.435 496.181 150.295 496.665 151.4C496.75 151.613 496.918 151.798 497.143 151.93C497.369 152.062 497.641 152.133 497.921 152.133C498.2 152.133 498.473 152.062 498.698 151.93C498.924 151.798 499.092 151.613 499.177 151.4C499.805 149.678 501.24 150.172 501.183 151.99C501.129 152.729 501.019 153.465 500.854 154.193C497.9 154.72 494.823 154.594 491.952 153.83C490.457 153.388 490.824 153.749 490.636 152.138C490.47 150.77 489.842 147.79 491.512 147.115ZM395.243 78.266C396.299 78.266 397.331 78.5162 398.208 78.9851C399.086 79.454 399.77 80.1204 400.174 80.9001C400.578 81.6798 400.684 82.5377 400.478 83.3654C400.272 84.1932 399.764 84.9535 399.017 85.5502C398.271 86.147 397.32 86.5534 396.284 86.718C395.249 86.8826 394.175 86.7981 393.2 86.4752C392.225 86.1522 391.391 85.6053 390.804 84.9036C390.218 84.2019 389.905 83.3769 389.905 82.533C389.905 81.9726 390.043 81.4178 390.311 80.9001C390.579 80.3824 390.973 79.912 391.468 79.5158C391.964 79.1195 392.552 78.8052 393.2 78.5908C393.848 78.3764 394.542 78.266 395.243 78.266Z" fill="black"/>
<path d="M223.883 84.3352C223.6 84.3373 223.326 84.4115 223.1 84.547C222.874 84.6825 222.708 84.8721 222.627 85.0882C217.242 109.686 214.604 237.97 214.604 237.97C214.604 238.245 214.741 238.51 214.985 238.705C215.229 238.899 215.559 239.009 215.904 239.009C216.249 239.009 216.579 238.899 216.823 238.705C217.067 238.51 217.204 238.245 217.204 237.97C217.204 237.691 220.859 106.933 224.991 86.4411C227.312 86.5289 501.44 99.1417 516.245 100.108C535.113 101.333 567.022 103.564 585.598 106.069C585.312 107.51 545.89 308.526 545.874 308.649C545.623 309.949 548.122 310.546 548.386 309.214C548.744 307.396 588.308 105.63 588.327 105.505C588.411 105.239 588.363 104.957 588.193 104.719C588.023 104.481 587.745 104.305 587.416 104.227C531.574 96.3029 238.521 84.3352 223.883 84.3352ZM501.773 307.725C511.689 309.13 521.494 310.997 531.138 313.317C532.677 313.787 533.37 311.789 531.829 311.309C519.476 307.469 483.602 302.954 352.886 285.835C351.244 285.635 350.538 287.65 352.199 287.843C352.365 287.871 474.643 304.056 501.773 307.725Z" fill="black"/>
<path d="M611.359 92.1701C500.762 66.7513 208.434 64.3091 197.717 65.1525C197.403 65.1776 196.147 65.0445 195.962 65.9055C193.02 79.0428 186.165 231.274 186.152 231.565C186.09 232.906 188.705 232.906 188.752 231.565C188.752 231.314 195.24 81.8967 198.326 67.2257C294.825 67.3462 515.608 72.2457 609.603 93.9271C609.553 94.2283 568.944 342.121 568.959 342.44C402.963 437.96 408.998 434.436 408.681 434.662C408.364 434.888 426.375 438.661 20.2034 356.754C34.1796 349.44 143.69 292.064 149.078 289.235C150.476 288.51 149.173 286.693 147.763 287.431C132.942 295.196 21.7075 353.476 16.3161 356.295C16.1002 356.401 15.9274 356.556 15.8186 356.739C15.7098 356.922 15.6695 357.126 15.7027 357.327C15.7359 357.529 15.8411 357.718 16.0056 357.872C16.1702 358.026 16.387 358.139 16.6301 358.197C18.6554 358.604 408.339 437.069 408.885 436.969C409.199 436.911 570.994 344.187 571.449 342.979C571.509 342.821 609.629 109.228 612.269 93.1415C612.276 92.9213 612.19 92.7056 612.025 92.5293C611.86 92.3531 611.625 92.2265 611.359 92.1701Z" fill="black"/>
<path d="M560.955 341.194C562.525 341.631 563.229 339.628 561.646 339.186C553.168 336.842 339.089 305.158 338.772 305.118C337.127 304.882 336.423 306.893 338.081 307.126C541.139 336.887 553.991 339.171 560.955 341.194ZM400.819 406.412C416.132 398.563 424.425 393.663 503.873 349.749C505.239 348.983 503.936 347.181 502.558 347.944C489.178 355.358 457.602 372.846 455.207 374.173C442.121 371.703 429.038 369.24 415.957 366.781C431.242 355.461 437.353 351.219 442.939 347.331C443.94 347.52 462.852 351.064 471.283 352.74C471.606 352.79 471.94 352.74 472.219 352.601C472.498 352.462 472.701 352.244 472.788 351.99C472.875 351.737 472.839 351.467 472.688 351.234C472.536 351 472.28 350.821 471.971 350.732C463.119 348.975 454.252 347.289 445.366 345.647C449.448 342.806 453.498 339.95 457.612 337.143C458.896 336.267 457.034 334.801 455.762 335.665C451.214 338.777 446.691 341.913 442.194 345.072C429.251 342.695 419.542 340.956 398.511 337.63C402.489 334.852 406.455 332.045 410.48 329.302C411.736 328.426 409.899 326.96 408.631 327.826C404.151 330.905 399.691 334.007 395.251 337.131C390.928 336.453 365.167 332.613 356.611 331.468C354.965 331.245 354.262 333.26 355.923 333.476C368.233 335.152 380.518 336.947 392.774 338.86C386.915 342.982 369.695 355.484 366.875 357.55C364.479 357.1 341.68 352.801 332.687 351.111C331.057 350.798 330.351 352.813 331.996 353.119L364.57 359.244C345.605 373.265 338.628 378.892 332.982 383.317C330.398 382.843 308.851 378.91 300.64 377.494C299.01 377.218 298.304 379.223 299.949 379.502C310.246 381.269 320.52 383.119 330.771 385.052C328.812 386.593 326.821 388.119 324.862 389.66C324.636 389.859 324.515 390.12 324.524 390.388C324.532 390.657 324.669 390.913 324.907 391.103C325.144 391.293 325.464 391.402 325.8 391.409C326.136 391.415 326.462 391.319 326.711 391.138C329.048 389.286 331.421 387.459 333.764 385.616C336.929 386.206 365.588 391.794 376.71 394.11C375.096 395.4 373.453 396.665 371.855 397.956C370.681 398.907 372.515 400.385 373.702 399.434C375.661 397.843 377.667 396.289 379.642 394.713C381.866 395.174 400.2 399.095 407.124 400.636C404.612 401.977 402.1 403.314 399.541 404.632C398.093 405.335 399.409 407.142 400.819 406.412ZM396.011 339.352C410.638 341.631 425.217 344.103 439.742 346.767C433.895 350.888 416.035 363.877 412.886 366.207C411.193 365.883 382.534 360.481 369.905 358.114C387.759 344.959 394.862 340.153 396.011 339.352ZM378.839 392.398C375.356 391.671 346.76 385.933 335.918 383.892C355.904 368.282 362.875 363.328 367.569 359.831C381.9 362.535 396.233 365.232 410.568 367.921C392.526 381.362 386.682 386.136 378.839 392.386V392.398ZM381.749 392.998C400.436 378.189 408.232 372.514 413.639 368.498C418.494 369.412 444.27 374.271 452.308 375.777C442.279 381.339 414.06 396.909 409.969 399.1C400.599 396.997 391.192 394.959 381.749 392.986V392.998ZM114.441 339.063C125.855 331.88 137.41 324.849 148.881 317.728C149.992 317.038 148.689 315.256 147.031 316.25L112.592 337.585C111.49 338.27 112.805 340.105 114.441 339.063ZM108.174 343.117C122.019 346.68 135.995 349.878 150.102 352.713C150.422 352.756 150.75 352.703 151.024 352.563C151.297 352.424 151.496 352.208 151.582 351.958C151.668 351.708 151.635 351.442 151.489 351.21C151.343 350.979 151.095 350.799 150.793 350.705C136.69 347.85 122.713 344.652 108.861 341.112C107.263 340.692 106.572 342.71 108.174 343.117ZM55.9932 283.492C56.518 286.359 57.7542 289.114 59.6293 291.594C62.0685 293.579 65.2796 294.842 68.7353 295.176C87.1765 298.886 106.786 300.698 123.594 293.274C137.209 287.25 142.528 278.593 144.12 266.632C145.556 251.738 145.472 236.775 143.869 221.892C143.863 221.688 143.783 221.49 143.638 221.322C143.494 221.154 143.292 221.023 143.056 220.945C142.82 220.866 142.562 220.845 142.311 220.882C142.06 220.919 141.828 221.013 141.643 221.154C123.431 234.133 96.471 235.872 72.34 236.896C65.6487 237.178 58.2257 237.429 53.2551 233.817C52.018 232.916 50.1685 234.391 51.4057 235.295C51.4908 235.353 51.5799 235.408 51.6726 235.458C49.7162 251.55 51.177 267.79 55.9932 283.492ZM54.1689 236.871C56.3307 237.837 58.6934 238.483 61.1428 238.776C67.495 239.625 81.0975 238.663 88.1876 238.149C107.276 236.761 126.543 233.726 141.499 224.023C142.685 236.265 142.884 248.556 142.095 260.819C141.304 272.887 139.062 282.117 126.709 289.25C112.158 297.656 93.5822 297.448 75.9573 294.388C69.7025 293.311 63.3973 292.558 61.3375 289.87C59.3436 285.742 57.8586 281.468 56.9038 277.109C53.5528 263.874 52.6315 250.319 54.1689 236.871ZM214.249 248.859C214.631 248.859 215.004 248.949 215.322 249.118C215.639 249.287 215.887 249.528 216.033 249.809C216.179 250.091 216.218 250.401 216.143 250.7C216.069 250.999 215.885 251.274 215.616 251.49C215.346 251.706 215.002 251.852 214.628 251.912C214.253 251.971 213.866 251.941 213.513 251.824C213.161 251.707 212.86 251.509 212.648 251.255C212.436 251.001 212.324 250.703 212.324 250.398C212.324 249.99 212.527 249.598 212.888 249.31C213.249 249.021 213.739 248.859 214.249 248.859ZM215.05 256.836C214.801 256.784 214.538 256.792 214.294 256.859C214.05 256.926 213.837 257.049 213.68 257.212C213.523 257.375 213.429 257.572 213.411 257.777C213.393 257.982 213.451 258.188 213.577 258.367C213.881 258.816 214.313 259.201 214.839 259.491C215.364 259.781 215.968 259.967 216.601 260.034C217.234 260.101 217.878 260.047 218.48 259.877C219.082 259.707 219.625 259.425 220.064 259.055C220.31 258.859 220.448 258.593 220.448 258.315C220.448 258.038 220.31 257.772 220.064 257.576C219.819 257.38 219.487 257.27 219.14 257.27C218.793 257.27 218.46 257.38 218.215 257.576C218.112 257.685 217.982 257.775 217.834 257.842C217.685 257.908 217.521 257.949 217.352 257.963H217.072C216.161 257.855 215.788 256.996 215.05 256.836ZM236.86 363.049C243.476 356.395 225.013 355.07 219.506 364.096C215.819 370.145 231.105 368.855 236.86 363.049ZM203.25 361.372C205.878 363.257 213.995 362.853 218.793 358.165C217.628 357.204 216.797 356.017 216.381 354.721C213.221 354.403 210.015 354.544 206.917 355.135C204.076 355.868 199.419 358.621 203.25 361.372ZM210.466 273.921C210.779 274.321 211.062 274.735 211.313 275.161C211.535 275.236 211.78 275.258 212.017 275.224C212.254 275.191 212.474 275.104 212.651 274.973C224.222 266.891 224.696 266.166 227.224 266.243C228.461 266.281 246.525 269.273 258.686 271.103C283.474 274.833 307.294 276.891 330.906 283.816C314.285 295.114 296.763 305.537 278.45 315.018C278.265 315.116 278.114 315.249 278.009 315.405C277.904 315.561 277.849 315.735 277.849 315.912C277.849 316.09 277.904 316.264 278.009 316.42C278.114 316.576 278.265 316.709 278.45 316.807C278.256 316.818 278.068 316.868 277.904 316.951C277.739 317.034 277.603 317.149 277.508 317.284C277.526 317.104 277.478 316.924 277.369 316.766C277.261 316.608 277.098 316.478 276.898 316.393C268.473 313.528 259.43 312.005 250.274 311.91C249.93 311.91 249.599 312.02 249.355 312.215C249.111 312.41 248.974 312.674 248.974 312.949C248.974 313.225 249.111 313.489 249.355 313.684C249.599 313.879 249.93 313.989 250.274 313.989C258.971 314.058 267.567 315.484 275.58 318.185C275.88 318.315 276.231 318.35 276.562 318.282C276.893 318.215 277.18 318.05 277.366 317.821C278.143 336.615 278.457 355.42 278.308 374.224C278.308 374.499 278.445 374.763 278.689 374.958C278.933 375.153 279.264 375.263 279.608 375.263C279.953 375.263 280.284 375.153 280.528 374.958C280.771 374.763 280.908 374.499 280.908 374.224C281.074 355.407 280.76 336.59 279.966 317.784C279.964 317.61 279.903 317.441 279.79 317.293C279.677 317.145 279.515 317.025 279.323 316.945C297.627 307.613 315.103 297.28 331.626 286.022C331.843 305.116 330.52 324.202 327.663 343.16C327.459 344.488 330.074 344.475 330.263 343.16C333.235 323.379 334.533 303.46 334.147 283.54C334.22 283.286 334.176 283.02 334.024 282.789C333.872 282.559 333.621 282.38 333.318 282.285C309.611 275.099 284.155 272.779 260.379 269.233C246.249 267.129 229.679 264.303 227.632 264.173C223.434 263.909 221.666 265.894 210.817 273.49C210.653 273.605 210.531 273.755 210.466 273.921ZM216.052 298.07C218.04 300.743 219.603 303.604 220.705 306.587C220.823 306.828 221.048 307.025 221.337 307.141C221.626 307.258 221.959 307.284 222.271 307.216C222.583 307.147 222.852 306.989 223.027 306.772C223.202 306.554 223.269 306.292 223.217 306.037C222.05 302.879 220.397 299.849 218.297 297.016C218.104 296.809 217.823 296.665 217.506 296.614C217.189 296.562 216.86 296.606 216.582 296.737C216.303 296.868 216.095 297.076 215.997 297.322C215.899 297.568 215.919 297.835 216.052 298.07Z" fill="black"/>
<path d="M257.749 282.036C252.561 280.279 246.577 281.147 241.436 279.295C241.138 279.169 240.791 279.139 240.467 279.213C240.142 279.287 239.866 279.458 239.696 279.691C239.526 279.924 239.475 280.2 239.555 280.462C239.634 280.724 239.837 280.952 240.121 281.097C245.512 283.04 251.638 282.264 257.058 284.054C257.388 284.117 257.737 284.075 258.029 283.936C258.322 283.798 258.535 283.574 258.625 283.312C258.715 283.05 258.673 282.77 258.51 282.532C258.346 282.294 258.073 282.116 257.749 282.036ZM251.996 285.106C247.547 284.855 243.113 284.568 238.664 284.292C238.319 284.292 237.988 284.402 237.745 284.597C237.501 284.792 237.364 285.056 237.364 285.331C237.364 285.607 237.501 285.871 237.745 286.066C237.988 286.261 238.319 286.371 238.664 286.371C243.113 286.647 247.547 286.91 251.996 287.184C252.341 287.184 252.672 287.074 252.915 286.88C253.159 286.685 253.296 286.42 253.296 286.145C253.296 285.869 253.159 285.605 252.915 285.41C252.672 285.215 252.341 285.106 251.996 285.106ZM245.776 289.001C241.492 288.966 237.232 288.49 233.1 287.585C232.777 287.536 232.443 287.586 232.164 287.725C231.885 287.864 231.682 288.082 231.595 288.335C231.508 288.589 231.544 288.859 231.695 289.092C231.847 289.325 232.103 289.504 232.412 289.593C236.77 290.54 241.26 291.041 245.776 291.084C246.099 291.059 246.4 290.938 246.618 290.746C246.836 290.553 246.957 290.303 246.957 290.043C246.957 289.783 246.836 289.532 246.618 289.34C246.4 289.147 246.099 289.027 245.776 289.001ZM194.698 340.228C189.939 338.939 185.047 337.992 180.078 337.399C179.746 337.334 179.395 337.373 179.098 337.507C178.801 337.642 178.579 337.863 178.479 338.124C178.434 338.256 178.421 338.393 178.442 338.529C178.463 338.664 178.517 338.795 178.601 338.914C178.685 339.032 178.798 339.137 178.933 339.22C179.068 339.304 179.222 339.366 179.387 339.402C184.354 340.005 189.245 340.953 194.007 342.233C195.605 342.67 196.283 340.662 194.698 340.228ZM206.981 301.463C205.97 300.753 205.254 300.743 198.221 299.799C185.083 298.042 171.345 296.657 157.624 295.728C157.424 295.729 157.226 295.766 157.047 295.837C156.868 295.908 156.712 296.011 156.591 296.139C156.469 296.266 156.386 296.413 156.347 296.57C156.309 296.727 156.316 296.889 156.368 297.043C161.523 309.192 166.673 321.345 171.816 333.503C172.35 334.758 174.872 334.229 174.328 332.951C169.396 321.29 164.456 309.625 159.508 297.957C175.616 299.104 190.675 300.781 202.598 302.502C203.584 302.64 205.37 302.603 205.59 303.579C205.673 304.733 205.568 305.891 205.276 307.023C203.957 317.179 201.806 327.255 198.836 337.186C198.444 338.488 200.968 339.053 201.348 337.738C204.323 327.736 206.49 317.591 207.835 307.367C208.046 305.547 208.975 302.864 206.981 301.463ZM174.171 338.576C174.478 348.361 174.043 358.152 172.868 367.895C172.714 369.236 175.314 369.226 175.471 367.895C176.633 358.152 177.067 348.361 176.771 338.576C176.771 338.301 176.634 338.036 176.391 337.841C176.147 337.646 175.816 337.537 175.471 337.537C175.127 337.537 174.796 337.646 174.552 337.841C174.308 338.036 174.171 338.301 174.171 338.576ZM197.219 341.781C196.936 352.605 196.591 363.425 196.277 374.248C196.277 374.524 196.414 374.788 196.658 374.983C196.901 375.178 197.232 375.287 197.577 375.287C197.922 375.287 198.252 375.178 198.496 374.983C198.74 374.788 198.877 374.524 198.877 374.248L199.819 341.781C199.819 341.506 199.682 341.241 199.438 341.047C199.194 340.852 198.864 340.742 198.519 340.742C198.174 340.742 197.843 340.852 197.6 341.047C197.356 341.241 197.219 341.506 197.219 341.781ZM246.561 325.838C246.56 325.678 246.513 325.52 246.424 325.377C246.335 325.234 246.206 325.109 246.047 325.012C245.888 324.915 245.704 324.849 245.507 324.818C245.311 324.787 245.109 324.792 244.916 324.834C231.071 327.422 217.734 331.509 205.273 336.982C203.8 337.635 205.116 339.425 206.589 338.787C218.327 333.634 230.86 329.734 243.867 327.186C243.05 339.424 242.23 351.667 241.405 363.912C241.327 365.052 240.702 367.042 242.237 367.77C243.647 368.433 245.587 367.067 244.586 365.915C244.423 365.728 244.187 365.591 243.914 365.526C243.914 365.26 246.542 326.109 246.561 325.838Z" fill="black"/>
<path d="M323.604 271.956C322.43 268.994 318.722 268.625 314.941 269.287L315.051 265.879L293.74 265.404L293.146 284.091C293.146 284.091 304.692 288.358 314.455 285.043L314.549 281.975C322.449 280.665 325.087 275.683 323.604 271.956ZM314.63 279.865L314.897 271.461C316.479 270.943 318.239 270.889 319.865 271.31C322.854 272.719 321.928 278.436 314.63 279.865Z" fill="#FF8684"/>
<path d="M302.84 264.351C299.8 264.33 296.761 264.338 293.734 264.376C293.435 264.378 293.146 264.461 292.914 264.612C292.683 264.762 292.522 264.971 292.458 265.205C292.394 265.438 292.431 265.682 292.563 265.896C292.695 266.11 292.914 266.282 293.184 266.384C296.375 268.389 300.292 269.513 304.349 269.587C308.406 269.662 312.384 268.683 315.686 266.798C316.502 266.321 316.581 265.081 315.372 264.893C311.224 264.409 307.029 264.227 302.84 264.351ZM298.249 266.456C301.044 266.456 305.107 266.381 310.517 266.607C308.565 267.243 306.472 267.557 304.364 267.531C302.256 267.505 300.176 267.14 298.249 266.456Z" fill="black"/>
<path d="M54.1701 236.871C56.332 237.837 58.6947 238.482 61.144 238.776C67.4962 239.624 81.0987 238.663 88.1888 238.148C107.277 236.76 126.544 233.726 141.5 224.022C142.686 236.265 142.885 248.556 142.096 260.819C141.305 272.887 139.063 282.116 126.71 289.249C112.16 297.655 93.5834 297.447 75.9585 294.387C69.7037 293.311 63.3985 292.558 61.3387 289.869C59.3448 285.741 57.8598 281.467 56.905 277.109C53.5541 263.873 52.6327 250.318 54.1701 236.871Z" fill="#FF8684"/>
<path d="M284.604 290.267C285.205 289.776 285.613 289.154 285.777 288.48C285.941 287.805 285.854 287.107 285.527 286.472C284.585 285.307 282.173 285.593 280.716 285.884C282.952 282.034 279.979 279.511 273.4 282.212C273.542 281.976 273.667 281.725 273.793 281.459C273.838 281.327 273.85 281.19 273.829 281.054C273.808 280.919 273.753 280.788 273.669 280.669C273.584 280.551 273.471 280.447 273.336 280.363C273.201 280.279 273.047 280.218 272.882 280.182C264.53 278.804 243.803 275.335 241.78 275.059C237.293 274.446 235.927 276.017 232.599 278.615C228.073 282.108 223.637 285.674 219.295 289.313C219.892 289.85 220.501 290.352 221.097 290.819C226.161 286.564 231.359 282.412 236.687 278.369C237.214 277.865 237.897 277.479 238.669 277.251C239.44 277.023 240.272 276.96 241.083 277.069C241.523 277.124 263.585 280.779 266.404 281.238C264.547 281.878 262.892 282.841 261.558 284.057C260.225 285.273 259.247 286.711 258.696 288.266C259.11 288.286 259.523 288.324 259.933 288.379C261.418 288.595 261.23 288.771 261.148 288.379C262.319 286.358 264.186 284.644 266.53 283.439C266.662 284.508 266.614 285.586 266.389 286.645C266.324 286.865 266.349 287.095 266.461 287.303C266.573 287.51 266.766 287.683 267.01 287.796C267.255 287.908 267.539 287.955 267.82 287.929C268.1 287.902 268.363 287.804 268.568 287.649C270.875 285.66 273.784 284.18 277.014 283.352C277.404 283.279 278.487 282.978 278.751 283.291C279.015 283.605 278.704 284.268 278.566 284.546C277.865 285.85 276.924 287.063 275.774 288.143C274.757 289.17 276.434 290.611 277.624 289.622C278.338 289.006 279.207 288.519 280.174 288.192C281.142 287.865 282.185 287.707 283.235 287.727C282.651 289.265 281.684 289.8 279.363 290.909C278 291.549 278.971 292.977 280.365 292.814C281.354 292.701 282.293 292.312 283.282 292.214C286.384 291.931 283.571 295.698 267.642 297.586C267.253 298.346 266.759 299.069 266.169 299.742C266.769 299.98 268.345 299.611 268.995 299.529C272.745 299.051 276.436 298.313 280.026 297.322C282.563 296.622 286.306 295.407 287.012 293.055C287.089 292.745 287.087 292.426 287.006 292.117C286.926 291.808 286.769 291.515 286.544 291.255C286.32 290.995 286.032 290.773 285.699 290.604C285.366 290.434 284.993 290.319 284.604 290.267ZM269.152 283.379C269.143 283.022 269.037 282.67 268.843 282.347C268.648 282.025 268.369 281.74 268.025 281.512C268.888 281.65 269.748 281.798 270.612 281.939C270.173 282.448 269.685 282.93 269.152 283.379Z" fill="black"/>
<path d="M430.936 205.471C434.227 209.989 437.512 214.494 440.792 218.985L421.503 216.769C423.995 212.68 427.168 208.879 430.936 205.471Z" fill="#FFD35C"/>
<path d="M472.444 222.888C471.272 222.903 470.103 222.798 468.965 222.574C465.624 222.18 462.308 221.658 459.03 221.01C460.363 217.255 460.83 213.338 460.408 209.449C466.514 209.13 472.595 210.315 477.832 212.843C477.035 214.534 474.497 219.846 474.042 220.822C473.716 221.49 473.493 222.77 472.444 222.888Z" fill="#F55555"/>
<path d="M504.798 220.052C503.845 220.876 502.588 221.435 501.209 221.647C499.83 221.859 498.403 221.712 497.136 221.229C495.93 220.75 494.942 219.981 494.312 219.029C493.682 218.078 493.44 216.992 493.623 215.925C493.805 214.859 494.401 213.864 495.327 213.083C496.253 212.301 497.463 211.771 498.785 211.568C500.108 211.365 501.477 211.498 502.7 211.95C503.923 212.401 504.937 213.148 505.601 214.085C506.265 215.022 506.545 216.101 506.401 217.172C506.256 218.242 505.696 219.25 504.798 220.052Z" fill="#B26EE6"/>
<path d="M473.161 243.234C466.812 239.353 455.398 232.265 454.704 231.939C454.153 231.634 453.529 231.424 452.871 231.323C452.213 231.222 451.536 231.232 450.883 231.351C449.285 231.766 448.923 233.003 448.798 234.195C448.484 237.338 447.2 250.739 446.87 254.275C446.853 254.418 446.878 254.562 446.944 254.696C447.01 254.829 447.114 254.948 447.249 255.043C447.383 255.139 447.544 255.207 447.717 255.243C447.891 255.279 448.073 255.282 448.248 255.252C448.268 255.416 448.341 255.573 448.46 255.707C448.579 255.842 448.741 255.949 448.928 256.017C449.116 256.086 449.322 256.114 449.528 256.099C449.733 256.083 449.93 256.025 450.098 255.929C453.304 254.102 455.288 249.95 457.665 248.628C459.863 252.624 461.914 256.68 464.259 260.626C466.947 265.194 471.462 265.369 473.582 263.67C473.945 263.44 474.189 263.11 474.267 262.745C474.346 262.379 474.252 262.004 474.006 261.69C473.064 260.038 467.299 250.106 465.39 246.788C467.881 246.236 470.372 245.689 472.863 245.146C473.103 245.083 473.315 244.967 473.475 244.811C473.635 244.655 473.737 244.466 473.768 244.265C473.8 244.065 473.759 243.862 473.652 243.679C473.544 243.497 473.374 243.342 473.161 243.234ZM463.198 245.101C463.007 245.146 462.832 245.224 462.684 245.33C462.536 245.436 462.42 245.568 462.345 245.714C462.27 245.861 462.236 246.02 462.248 246.178C462.26 246.337 462.316 246.491 462.413 246.63L471.487 262.322C471.19 262.451 470.862 262.529 470.524 262.55C470.187 262.572 469.848 262.537 469.528 262.448C466.972 261.793 466.231 258.949 459.42 246.68C459.277 246.481 459.054 246.325 458.787 246.239C458.52 246.152 458.225 246.14 457.948 246.203C453.756 247.458 452.195 251.552 449.551 253.592C449.865 250.274 451.213 236.319 451.304 235.408C451.68 231.894 449.787 231.464 469.669 243.691C467.506 244.147 465.349 244.629 463.198 245.101Z" fill="black"/>
</svg>
