<svg width="96" height="96" viewBox="0 0 96 96" fill="none" xmlns="http://www.w3.org/2000/svg">
<path d="M31.5851 0.706913L31.585 0.706918C31.1339 0.817647 30.3783 1.10908 29.8798 1.35951C29.1094 1.74645 28.7311 2.04347 27.8843 2.88849L27.8843 2.88851C27.4471 3.32493 27.1574 3.62916 26.9264 3.93672C26.6903 4.25111 26.5258 4.55511 26.3204 4.9778L26.3204 4.97785C26.3023 5.01507 26.2845 5.05169 26.2668 5.08782C26.097 5.43631 25.9496 5.73869 25.8379 6.08363C25.7118 6.47312 25.6347 6.90189 25.5854 7.52307C25.4932 8.68652 25.4933 10.6182 25.4935 14.4084C25.4935 14.5979 25.4935 14.792 25.4935 14.991V21.8963H16.8893H16.7749C11.9047 21.8963 9.44373 21.8963 8.03626 21.9676C7.32375 22.0037 6.85558 22.059 6.46907 22.1491C6.08739 22.2381 5.80136 22.3579 5.47327 22.4953L5.4506 22.5048C5.4506 22.5048 5.45059 22.5048 5.45059 22.5048C3.36885 23.3766 1.58148 25.3199 0.835592 27.5071L0.570303 28.2849L0.543609 28.3632L0.543532 28.4458L0.515932 58.2958C0.513473 60.9588 0.510763 63.3916 0.508286 65.6151C0.495161 77.3986 0.488588 83.2996 0.560568 86.3852C0.603049 88.2062 0.672888 89.094 0.799537 89.6406C0.893903 90.048 1.04221 90.3108 1.17767 90.5508C1.22796 90.64 1.27648 90.7259 1.3198 90.815L1.31982 90.815C1.52517 91.2371 1.69027 91.5414 1.92659 91.8562C2.15784 92.1643 2.44753 92.4694 2.88396 92.9058L2.884 92.9059C3.3208 93.3426 3.62573 93.6323 3.93374 93.8634C4.24854 94.0995 4.55273 94.2643 4.97506 94.4694C5.10324 94.5317 5.17206 94.5749 5.25295 94.6257C5.30201 94.6565 5.35552 94.6901 5.4294 94.7324C5.61592 94.8392 5.81909 94.9247 6.14506 94.9915C6.75024 95.1155 7.84109 95.1851 10.2278 95.2285C14.2205 95.3011 21.9671 95.2999 37.4469 95.2974C40.5976 95.2969 44.0686 95.2963 47.8935 95.2963C51.7185 95.2963 55.1895 95.2969 58.3402 95.2974C73.82 95.2999 81.5665 95.3011 85.5593 95.2285C87.946 95.1851 89.0368 95.1155 89.642 94.9915C89.968 94.9247 90.1711 94.8392 90.3577 94.7324C90.4315 94.6901 90.485 94.6565 90.5341 94.6257C90.615 94.5749 90.6838 94.5317 90.812 94.4695L90.5935 94.0197L90.812 94.4694C91.2343 94.2643 91.5385 94.0995 91.8533 93.8634C92.1613 93.6323 92.4663 93.3426 92.9031 92.9059L92.9031 92.9058C93.3395 92.4694 93.6292 92.1643 93.8605 91.8562C94.0968 91.5414 94.2619 91.2371 94.4672 90.815L94.0176 90.5963L94.4673 90.815C94.5106 90.7259 94.5591 90.6399 94.6095 90.5507C94.7449 90.3107 94.8933 90.0478 94.9876 89.6406C95.1143 89.094 95.1842 88.2064 95.2267 86.3854C95.2986 83.3 95.2921 77.3993 95.2789 65.6159C95.2764 63.3922 95.2737 60.9591 95.2712 58.2958L95.2435 28.4458L95.2435 28.3632L95.2168 28.2849L94.9515 27.5071C94.2056 25.3199 92.4182 23.3765 90.3365 22.5048L90.3138 22.4953C89.9857 22.3579 89.6997 22.238 89.318 22.1491C88.9315 22.059 88.4633 22.0037 87.7508 21.9676C86.3433 21.8963 83.8823 21.8963 79.0121 21.8963H78.8977H70.2935V14.991L70.2935 14.4084C70.2938 10.6182 70.2939 8.68652 70.2016 7.52307C70.1524 6.90189 70.0753 6.47312 69.9492 6.08363C69.8375 5.73866 69.6901 5.43625 69.5202 5.08773C69.5026 5.05163 69.4847 5.01503 69.4667 4.97785L69.0199 5.19489L69.4667 4.97783C69.2615 4.5555 69.0968 4.25131 68.8606 3.93651C68.6295 3.62851 68.3399 3.32358 67.9031 2.88677L67.9031 2.88673C67.4663 2.44998 67.1613 2.1603 66.8533 1.92923C66.5385 1.69306 66.2343 1.52831 65.812 1.32316L65.812 1.32315C65.7243 1.28057 65.6403 1.23779 65.5574 1.19559C65.2783 1.05352 65.0124 0.91811 64.6653 0.819624C64.2118 0.690952 63.6175 0.618667 62.5794 0.573734C60.7594 0.494961 57.4428 0.497262 50.8453 0.501839C49.9062 0.50249 48.9007 0.503188 47.8236 0.503704C40.5728 0.507153 36.7135 0.511572 34.5803 0.536563C32.4683 0.561307 32.0011 0.604812 31.5851 0.706913ZM4.22049 25.8026L3.86423 25.4518L4.22049 25.8026C5.18082 24.8274 6.34313 24.1966 7.47603 24.0043C7.48119 24.004 7.49564 24.0031 7.52352 24.002C7.56937 24.0002 7.63472 23.9983 7.7203 23.9963C7.89095 23.9925 8.13403 23.9888 8.44574 23.9851C9.06872 23.9779 9.96026 23.9711 11.0826 23.9648C13.3271 23.9523 16.4915 23.9417 20.2694 23.9332C27.8252 23.9161 37.8337 23.9071 47.843 23.9064C57.8523 23.9057 67.862 23.9133 75.4202 23.9293C79.1994 23.9374 82.3652 23.9475 84.6115 23.9597C85.7347 23.9658 86.6272 23.9725 87.2513 23.9797C87.5635 23.9833 87.8071 23.987 87.9783 23.9908C88.0642 23.9927 88.1299 23.9946 88.1761 23.9964C88.2058 23.9976 88.2206 23.9986 88.2251 23.9988C89.4617 24.2025 90.5756 24.7963 91.5666 25.8026C92.2536 26.5002 92.6658 27.1531 93.006 28.0843L93.2435 28.7348V58.5463V88.369L93.0451 88.9953C92.4692 90.8129 90.8886 92.4157 89.0317 93.0508L89.1935 93.5239L89.0317 93.0508L88.4602 93.2464L48.2153 93.272C44.6861 93.2743 41.4581 93.2767 38.5051 93.279C22.6354 93.2911 14.7068 93.2972 10.6342 93.2305C8.20382 93.1908 7.18872 93.1249 6.68381 93.0297C6.39418 92.9751 6.33779 92.9379 6.20972 92.8535C6.13056 92.8014 6.02402 92.7312 5.81811 92.6277C4.2563 91.8425 2.96918 90.1786 2.62965 88.5226C2.60836 88.4187 2.58249 88.1108 2.56281 87.24C2.54362 86.3906 2.53026 85.0453 2.52164 82.9075C2.50441 78.6332 2.50618 71.205 2.51753 58.2734L2.54345 28.735L2.78107 28.0844C2.78108 28.0844 2.78108 28.0844 2.78109 28.0843C3.12131 27.1531 3.53352 26.5002 4.22049 25.8026ZM27.7155 5.5963L28.1623 5.82084C28.9322 4.289 30.6012 2.98105 32.1977 2.64003C32.1958 2.64045 32.1967 2.64035 32.2011 2.63983C32.2117 2.63858 32.2431 2.63491 32.3052 2.63036C32.3831 2.62465 32.4887 2.61888 32.622 2.61315C32.8881 2.60171 33.2529 2.59096 33.704 2.58096C34.6057 2.56098 35.8425 2.5442 37.3042 2.53069C40.227 2.50366 44.0425 2.48973 47.8595 2.48905C51.6765 2.48838 55.4936 2.50096 58.4194 2.52695C59.8826 2.53995 61.1213 2.55629 62.0253 2.57595C62.4775 2.58579 62.8436 2.59641 63.111 2.60775C63.245 2.61343 63.3514 2.61917 63.4302 2.62486C63.4967 2.62967 63.5291 2.63354 63.5389 2.63471C63.5422 2.63511 63.543 2.63521 63.5417 2.63493C65.1807 2.97603 66.8446 4.26867 67.6248 5.82084L67.6391 5.84933C67.8169 6.20297 67.9286 6.42521 68.0133 6.69376C68.0989 6.96469 68.1617 7.30111 68.2047 7.86934C68.2904 9.00272 68.2908 10.947 68.2918 14.91L68.2918 15.1214L68.2934 21.8963H47.8935H27.4936L27.4952 15.1214L27.4953 14.9092C27.4962 10.9467 27.4967 9.00265 27.5824 7.86934C27.6254 7.30111 27.6882 6.96469 27.7737 6.69376C27.8585 6.42517 27.9702 6.20289 28.148 5.84915L28.1623 5.82084L27.7155 5.5963ZM63.5417 2.63492L63.6435 2.1454L63.5417 2.63492Z" fill="black" stroke="black"/>
</svg>
