<svg width="53" height="93" viewBox="0 0 53 93" fill="none" xmlns="http://www.w3.org/2000/svg">
<mask id="path-1-outside-1_607_39" maskUnits="userSpaceOnUse" x="0" y="0" width="53" height="93" fill="black">
<rect fill="white" width="53" height="93"/>
<path fill-rule="evenodd" clip-rule="evenodd" d="M24.8485 1.04191C17.7643 1.43381 13.1366 5.21691 11.8557 11.6634C11.3255 14.3319 11.3263 17.3273 11.858 19.9304C12.9419 25.2375 16.3631 28.8131 21.5349 30.0442C24.2789 30.6974 28.2181 30.6974 30.9621 30.0442C36.1361 28.8126 39.5992 25.1814 40.6394 19.8974C41.0381 17.8722 41.1373 15.8388 40.9404 13.7304C40.5882 9.95851 39.3558 7.05801 37.1816 4.88351C34.3228 2.02451 30.2152 0.745113 24.8485 1.04191ZM23.526 2.18361C18.2974 2.89651 14.8102 5.61491 13.3017 10.1538C12.2349 13.3636 12.2306 18.1272 13.2917 21.3553C14.2937 24.4038 16.2117 26.6708 18.8985 27.9823C20.2594 28.6466 21.2498 28.9699 22.7985 29.2553C24.5377 29.5757 27.9593 29.5757 29.6985 29.2553C35.1879 28.2438 38.5402 25.012 39.6509 19.6607C40.0832 17.578 40.1015 14.1779 39.6919 12.0804C38.4016 5.47461 33.6939 1.99251 26.1184 2.04071C25.2274 2.04641 24.0609 2.11071 23.526 2.18361ZM24.1985 31.3972C20.0942 31.7375 16.7929 32.6337 13.3485 34.3425C6.56129 37.7098 2.21899 43.2332 1.13319 49.8804C0.907188 51.2634 0.975788 54.178 1.28599 56.3804C1.62739 58.8042 1.74619 59.2718 2.31429 60.4282C3.36329 62.5639 5.59989 64.1174 8.07149 64.4274C8.52339 64.484 9.71479 64.5304 10.719 64.5304C12.5305 64.5304 12.5451 64.5321 12.5957 64.7554C12.6237 64.8791 13.2551 68.7829 13.9989 73.4304C14.7426 78.0779 15.3984 82.1279 15.4562 82.4304C16.1738 86.1866 18.9033 89.3601 22.5485 90.6762C25.2761 91.661 28.4793 91.474 31.0985 90.1771C33.9449 88.7678 36.1 86.1244 36.8542 83.1174C36.9697 82.6571 37.7025 78.2979 38.4828 73.4304L39.9014 64.5804L42.35 64.5159C44.4257 64.4613 44.9102 64.419 45.5324 64.2381C46.9095 63.8378 48.123 63.077 49.1113 61.9945C50.353 60.6343 50.7355 59.6669 51.1694 56.7895C51.4212 55.1197 51.4743 54.4511 51.484 52.8304C51.4992 50.2869 51.2281 48.6652 50.4098 46.4045C47.4917 38.3432 38.6547 32.306 28.4985 31.4353C27.3854 31.3399 25.1306 31.3199 24.1985 31.3972ZM24.5485 32.3917C14.2167 33.1149 5.53809 39.0116 2.85649 47.1304C1.88979 50.0571 1.77509 52.4894 2.40019 56.8015C2.78699 59.4701 3.11149 60.2232 4.44289 61.5431C5.10829 62.2028 5.48789 62.4894 6.05579 62.7608C7.32799 63.3689 7.73459 63.4304 10.4832 63.4304C13.0685 63.4304 13.413 63.4809 13.4988 63.8725C13.5239 63.9869 14.1998 68.1631 15.0008 73.1531C15.8018 78.1431 16.5484 82.5743 16.66 83.0001C17.0969 84.6683 17.9796 86.1527 19.2731 87.3945C20.25 88.3324 21.0887 88.9234 22.1165 89.3982C24.0754 90.3033 26.6423 90.5083 28.8505 89.9359C32.2286 89.0602 35.0337 86.1999 35.8984 82.749C35.9768 82.4363 36.6963 78.0854 37.4973 73.0804C38.2983 68.0754 38.9788 63.8991 39.0096 63.7997C39.0404 63.7003 39.1772 63.5765 39.3136 63.5247C39.4499 63.4728 40.6741 63.4304 42.034 63.4304C43.9344 63.4304 44.6444 63.3948 45.1025 63.2765C47.4092 62.6811 49.2154 60.9029 49.8023 58.6497C49.9997 57.8916 50.3362 55.4445 50.4527 53.92C50.7804 49.6283 49.3647 45.1683 46.5516 41.6304C43.1656 37.3718 37.6517 34.1394 31.7122 32.931C29.6436 32.5101 26.3735 32.2639 24.5485 32.3917Z"/>
</mask>
<path fill-rule="evenodd" clip-rule="evenodd" d="M24.8485 1.04191C17.7643 1.43381 13.1366 5.21691 11.8557 11.6634C11.3255 14.3319 11.3263 17.3273 11.858 19.9304C12.9419 25.2375 16.3631 28.8131 21.5349 30.0442C24.2789 30.6974 28.2181 30.6974 30.9621 30.0442C36.1361 28.8126 39.5992 25.1814 40.6394 19.8974C41.0381 17.8722 41.1373 15.8388 40.9404 13.7304C40.5882 9.95851 39.3558 7.05801 37.1816 4.88351C34.3228 2.02451 30.2152 0.745113 24.8485 1.04191ZM23.526 2.18361C18.2974 2.89651 14.8102 5.61491 13.3017 10.1538C12.2349 13.3636 12.2306 18.1272 13.2917 21.3553C14.2937 24.4038 16.2117 26.6708 18.8985 27.9823C20.2594 28.6466 21.2498 28.9699 22.7985 29.2553C24.5377 29.5757 27.9593 29.5757 29.6985 29.2553C35.1879 28.2438 38.5402 25.012 39.6509 19.6607C40.0832 17.578 40.1015 14.1779 39.6919 12.0804C38.4016 5.47461 33.6939 1.99251 26.1184 2.04071C25.2274 2.04641 24.0609 2.11071 23.526 2.18361ZM24.1985 31.3972C20.0942 31.7375 16.7929 32.6337 13.3485 34.3425C6.56129 37.7098 2.21899 43.2332 1.13319 49.8804C0.907188 51.2634 0.975788 54.178 1.28599 56.3804C1.62739 58.8042 1.74619 59.2718 2.31429 60.4282C3.36329 62.5639 5.59989 64.1174 8.07149 64.4274C8.52339 64.484 9.71479 64.5304 10.719 64.5304C12.5305 64.5304 12.5451 64.5321 12.5957 64.7554C12.6237 64.8791 13.2551 68.7829 13.9989 73.4304C14.7426 78.0779 15.3984 82.1279 15.4562 82.4304C16.1738 86.1866 18.9033 89.3601 22.5485 90.6762C25.2761 91.661 28.4793 91.474 31.0985 90.1771C33.9449 88.7678 36.1 86.1244 36.8542 83.1174C36.9697 82.6571 37.7025 78.2979 38.4828 73.4304L39.9014 64.5804L42.35 64.5159C44.4257 64.4613 44.9102 64.419 45.5324 64.2381C46.9095 63.8378 48.123 63.077 49.1113 61.9945C50.353 60.6343 50.7355 59.6669 51.1694 56.7895C51.4212 55.1197 51.4743 54.4511 51.484 52.8304C51.4992 50.2869 51.2281 48.6652 50.4098 46.4045C47.4917 38.3432 38.6547 32.306 28.4985 31.4353C27.3854 31.3399 25.1306 31.3199 24.1985 31.3972ZM24.5485 32.3917C14.2167 33.1149 5.53809 39.0116 2.85649 47.1304C1.88979 50.0571 1.77509 52.4894 2.40019 56.8015C2.78699 59.4701 3.11149 60.2232 4.44289 61.5431C5.10829 62.2028 5.48789 62.4894 6.05579 62.7608C7.32799 63.3689 7.73459 63.4304 10.4832 63.4304C13.0685 63.4304 13.413 63.4809 13.4988 63.8725C13.5239 63.9869 14.1998 68.1631 15.0008 73.1531C15.8018 78.1431 16.5484 82.5743 16.66 83.0001C17.0969 84.6683 17.9796 86.1527 19.2731 87.3945C20.25 88.3324 21.0887 88.9234 22.1165 89.3982C24.0754 90.3033 26.6423 90.5083 28.8505 89.9359C32.2286 89.0602 35.0337 86.1999 35.8984 82.749C35.9768 82.4363 36.6963 78.0854 37.4973 73.0804C38.2983 68.0754 38.9788 63.8991 39.0096 63.7997C39.0404 63.7003 39.1772 63.5765 39.3136 63.5247C39.4499 63.4728 40.6741 63.4304 42.034 63.4304C43.9344 63.4304 44.6444 63.3948 45.1025 63.2765C47.4092 62.6811 49.2154 60.9029 49.8023 58.6497C49.9997 57.8916 50.3362 55.4445 50.4527 53.92C50.7804 49.6283 49.3647 45.1683 46.5516 41.6304C43.1656 37.3718 37.6517 34.1394 31.7122 32.931C29.6436 32.5101 26.3735 32.2639 24.5485 32.3917Z" fill="black"/>
<path fill-rule="evenodd" clip-rule="evenodd" d="M24.8485 1.04191C17.7643 1.43381 13.1366 5.21691 11.8557 11.6634C11.3255 14.3319 11.3263 17.3273 11.858 19.9304C12.9419 25.2375 16.3631 28.8131 21.5349 30.0442C24.2789 30.6974 28.2181 30.6974 30.9621 30.0442C36.1361 28.8126 39.5992 25.1814 40.6394 19.8974C41.0381 17.8722 41.1373 15.8388 40.9404 13.7304C40.5882 9.95851 39.3558 7.05801 37.1816 4.88351C34.3228 2.02451 30.2152 0.745113 24.8485 1.04191ZM23.526 2.18361C18.2974 2.89651 14.8102 5.61491 13.3017 10.1538C12.2349 13.3636 12.2306 18.1272 13.2917 21.3553C14.2937 24.4038 16.2117 26.6708 18.8985 27.9823C20.2594 28.6466 21.2498 28.9699 22.7985 29.2553C24.5377 29.5757 27.9593 29.5757 29.6985 29.2553C35.1879 28.2438 38.5402 25.012 39.6509 19.6607C40.0832 17.578 40.1015 14.1779 39.6919 12.0804C38.4016 5.47461 33.6939 1.99251 26.1184 2.04071C25.2274 2.04641 24.0609 2.11071 23.526 2.18361ZM24.1985 31.3972C20.0942 31.7375 16.7929 32.6337 13.3485 34.3425C6.56129 37.7098 2.21899 43.2332 1.13319 49.8804C0.907188 51.2634 0.975788 54.178 1.28599 56.3804C1.62739 58.8042 1.74619 59.2718 2.31429 60.4282C3.36329 62.5639 5.59989 64.1174 8.07149 64.4274C8.52339 64.484 9.71479 64.5304 10.719 64.5304C12.5305 64.5304 12.5451 64.5321 12.5957 64.7554C12.6237 64.8791 13.2551 68.7829 13.9989 73.4304C14.7426 78.0779 15.3984 82.1279 15.4562 82.4304C16.1738 86.1866 18.9033 89.3601 22.5485 90.6762C25.2761 91.661 28.4793 91.474 31.0985 90.1771C33.9449 88.7678 36.1 86.1244 36.8542 83.1174C36.9697 82.6571 37.7025 78.2979 38.4828 73.4304L39.9014 64.5804L42.35 64.5159C44.4257 64.4613 44.9102 64.419 45.5324 64.2381C46.9095 63.8378 48.123 63.077 49.1113 61.9945C50.353 60.6343 50.7355 59.6669 51.1694 56.7895C51.4212 55.1197 51.4743 54.4511 51.484 52.8304C51.4992 50.2869 51.2281 48.6652 50.4098 46.4045C47.4917 38.3432 38.6547 32.306 28.4985 31.4353C27.3854 31.3399 25.1306 31.3199 24.1985 31.3972ZM24.5485 32.3917C14.2167 33.1149 5.53809 39.0116 2.85649 47.1304C1.88979 50.0571 1.77509 52.4894 2.40019 56.8015C2.78699 59.4701 3.11149 60.2232 4.44289 61.5431C5.10829 62.2028 5.48789 62.4894 6.05579 62.7608C7.32799 63.3689 7.73459 63.4304 10.4832 63.4304C13.0685 63.4304 13.413 63.4809 13.4988 63.8725C13.5239 63.9869 14.1998 68.1631 15.0008 73.1531C15.8018 78.1431 16.5484 82.5743 16.66 83.0001C17.0969 84.6683 17.9796 86.1527 19.2731 87.3945C20.25 88.3324 21.0887 88.9234 22.1165 89.3982C24.0754 90.3033 26.6423 90.5083 28.8505 89.9359C32.2286 89.0602 35.0337 86.1999 35.8984 82.749C35.9768 82.4363 36.6963 78.0854 37.4973 73.0804C38.2983 68.0754 38.9788 63.8991 39.0096 63.7997C39.0404 63.7003 39.1772 63.5765 39.3136 63.5247C39.4499 63.4728 40.6741 63.4304 42.034 63.4304C43.9344 63.4304 44.6444 63.3948 45.1025 63.2765C47.4092 62.6811 49.2154 60.9029 49.8023 58.6497C49.9997 57.8916 50.3362 55.4445 50.4527 53.92C50.7804 49.6283 49.3647 45.1683 46.5516 41.6304C43.1656 37.3718 37.6517 34.1394 31.7122 32.931C29.6436 32.5101 26.3735 32.2639 24.5485 32.3917Z" stroke="black" stroke-width="2" mask="url(#path-1-outside-1_607_39)"/>
</svg>
